<?xml version="1.0" encoding="utf-8"?>
<!-- Generator: Adobe Illustrator 24.0.2, SVG Export Plug-In . SVG Version: 6.00 Build 0)  -->
<svg version="1.1" id="Layer_1" xmlns="http://www.w3.org/2000/svg" xmlns:xlink="http://www.w3.org/1999/xlink" x="0px" y="0px"
	 viewBox="0 0 150 100" style="enable-background:new 0 0 150 100;" xml:space="preserve">
<style type="text/css">
	.st0{opacity:0.8;fill:#3E5C9A;}
	.st1{opacity:0.7;fill:#3E5C9A;}
	.st2{opacity:0.85;fill:#3E5C9A;}
	.st3{fill:#FFFFFF;}
</style>
<g>
	<path class="st0" d="M87.37,95.61c2.29,2.52,5.69,3.76,9.13,3.15c3.44-0.62,6.85-3.14,8.78-6.68c4.06-7.49,1.17-20.88-7.46-18.14
		C90.96,76.11,81.78,89.46,87.37,95.61z"/>
	<path class="st1" d="M73.73,4.69C52.39,14.37,57.07,25.24,51,30.38s-30.05,11.7-30.96,20.15S43.38,67.47,51,76.93
		S47.93,97.88,78.35,91.8c9.31-1.86,33.78,0.61,32.57-21.63C109.71,47.94,91.99-3.59,73.73,4.69z"/>
	<path class="st2" d="M25.8,24.5c3.68-15.7,28.19-14.34,39.7-8.17c18.38,9.87,28.72,1.44,40.82,2.97
		c15.52,1.97,23.65,47.66-5.11,62.73s-46.87,21.61-62.52,7.2c-8.45-7.79-6-24.02-6.11-33.98c-0.04-4.34,0.47-9.09-0.7-13.34
		c-1.61-5.81-7.24-9.03-6.4-15.66C25.56,25.65,25.66,25.06,25.8,24.5z"/>
	<path id="XMLID_1420_" class="st3" d="M67.13,82.17h10.5v-26.3h7.33l0.78-8.81h-8.11c0,0,0-3.29,0-5.02c0-2.08,0.42-2.9,2.43-2.9
		c1.62,0,5.68,0,5.68,0V30c0,0-5.99,0-7.27,0c-7.82,0-11.34,3.44-11.34,10.03c0,5.74,0,7.02,0,7.02h-5.46v8.92h5.46V82.17z"/>
</g>
</svg>
