<?xml version="1.0" encoding="UTF-8" standalone="no"?>
<!-- Created with Inkscape (http://www.inkscape.org/) -->
<svg
   xmlns:svg="http://www.w3.org/2000/svg"
   xmlns="http://www.w3.org/2000/svg"
   xmlns:xlink="http://www.w3.org/1999/xlink"
   version="1.0"
   width="467"
   height="493"
   id="svg2">
  <defs
     id="defs4">
    <linearGradient
       id="linearGradient2893">
      <stop
         style="stop-color:#ffffff;stop-opacity:0.3137255"
         offset="0"
         id="stop2895" />
      <stop
         style="stop-color:#ffffff;stop-opacity:0.25098041"
         offset="0.19"
         id="stop2897" />
      <stop
         style="stop-color:#6b6b6b;stop-opacity:0.1254902"
         offset="0.60000002"
         id="stop2901" />
      <stop
         style="stop-color:#000000;stop-opacity:0.1254902"
         offset="1"
         id="stop2899" />
    </linearGradient>
    <radialGradient
       cx="285.18573"
       cy="200.44757"
       r="300"
       fx="285.18573"
       fy="200.44757"
       id="radialGradient11919"
       xlink:href="#linearGradient2893"
       gradientUnits="userSpaceOnUse"
       gradientTransform="matrix(1.551284,0,0,1.350335,-229.3944,342.5987)" />
    <radialGradient
       cx="285.18573"
       cy="200.44757"
       r="300"
       fx="285.18573"
       fy="200.44757"
       id="radialGradient13507"
       xlink:href="#linearGradient2893"
       gradientUnits="userSpaceOnUse"
       gradientTransform="matrix(1.551284,0,0,1.350335,-229.3944,342.5987)" />
    <radialGradient
       cx="285.18573"
       cy="200.44757"
       r="300"
       fx="285.18573"
       fy="200.44757"
       id="radialGradient14946"
       xlink:href="#linearGradient2893"
       gradientUnits="userSpaceOnUse"
       gradientTransform="matrix(1.551284,0,0,1.350335,-227.8945,-51.2635)" />
  </defs>
  <g
     transform="matrix(1.000953,0,0,1.001691,-69.97167,-59.91164)"
     id="layer2">
    <g
       id="g23765">
      <path
         d="M 390.59103,359.64382 C 391.44431,359.85714 408.72269,359.86863 416.40289,360.28378 C 424.29578,360.71043 437.04171,368.28333 440.7215,376.06955 C 444.4839,384.03057 430.90873,391.96197 426.00234,393.13524 C 420.89394,394.35681 414.69632,392.7086 414.69632,392.7086 L 390.59103,359.64382 z "
         style="fill:#ffffff;fill-opacity:1;fill-rule:evenodd;stroke:#000000;stroke-width:2.99604297;stroke-linecap:butt;stroke-linejoin:miter;stroke-miterlimit:4;stroke-dasharray:none;stroke-opacity:1"
         id="path18523" />
      <path
         d="M 327.66129,382.25586 C 327.66129,382.25586 323.82151,424.0668 324.24815,425.34673 C 324.67479,426.62666 324.46148,459.74476 340.46056,459.05147 C 356.24633,458.35818 362.65623,448.12811 364.13921,441.77246 C 365.63246,435.37282 363.28592,397.18834 363.28592,397.18834 L 327.66129,382.25586 z "
         style="fill:#ffffff;fill-opacity:1;fill-rule:evenodd;stroke:#000000;stroke-width:2.99604297;stroke-linecap:butt;stroke-linejoin:miter;stroke-miterlimit:4;stroke-dasharray:none;stroke-opacity:1"
         id="path17648" />
      <path
         d="M 331.54815,246.39443 C 333.35824,245.48939 369.60616,216.39151 371.37013,210.796 C 373.25602,204.81375 367.8825,198.43442 368.95668,196.0136 C 370.06877,193.50734 394.38446,196.9338 389.47103,189.67828 C 384.65618,182.56832 356.28605,169.54103 323.70443,161.01852 C 291.12281,152.49601 259.14455,155.58825 259.14455,155.58825 L 331.54815,246.39443 z "
         style="fill:#ffffff;fill-opacity:1;fill-rule:evenodd;stroke:#000000;stroke-width:2.99604297;stroke-linecap:butt;stroke-linejoin:miter;stroke-miterlimit:4;stroke-dasharray:none;stroke-opacity:1"
         id="path18525" />
      <path
         d="M 141.10001,241.91127 C 141.51967,245.47888 151.73962,243.75473 154.10243,242.23166 C 156.57068,240.64061 162.4193,235.16005 160.53372,232.29975 L 140.68058,202.18367 L 136.76588,205.06712 L 141.10001,241.91127 z "
         style="fill:#ffffff;fill-opacity:1;fill-rule:evenodd;stroke:#000000;stroke-width:2.99604297;stroke-linecap:butt;stroke-linejoin:miter;stroke-miterlimit:4;stroke-dasharray:none;stroke-opacity:1"
         id="path15884" />
      <path
         d="M 376.29851,323.80586 C 357.52625,278.58178 360.08611,272.60879 331.92771,235.91755 C 303.76932,199.22631 269.63794,159.12193 250.86568,142.05624 C 232.09341,124.99055 220.14743,113.89785 214.17444,111.76464 C 208.20144,109.63143 201.80181,107.49822 196.6821,102.80515 C 191.56239,98.112085 176.20327,81.473035 170.23028,80.193108 C 164.25729,78.913181 159.56422,82.752962 156.15108,79.766465 C 152.73795,76.779969 143.77846,66.967196 134.81897,64.407343 C 125.85948,61.847489 110.927,60.140919 104.10072,62.274131 C 97.274445,64.407343 87.461672,72.086904 87.461672,72.086904 C 87.461672,72.086904 101.54087,90.859165 101.54087,93.419019 C 101.54087,95.978873 93.434665,108.3515 93.434665,108.3515 C 93.434665,108.3515 91.301453,107.92486 90.448169,99.392012 C 89.594884,90.859165 91.728096,90.432523 90.448169,86.592742 C 89.168242,82.752962 82.341965,73.793473 79.782111,74.220116 C 77.222257,74.646758 73.382476,77.206612 72.10255,83.606246 C 70.822623,90.005881 71.249265,99.392012 73.809119,104.51172 C 76.368973,109.63143 94.287949,128.83033 95.567876,132.67011 C 96.847803,136.50989 95.141234,139.06975 97.701088,145.04274 C 100.26094,151.01573 104.10072,159.12193 108.79379,165.52157 C 113.48685,171.9212 125.43284,182.58726 125.43284,182.58726 C 125.43284,182.58726 117.32663,203.91938 113.06021,213.73215 C 108.79379,223.54492 108.36715,240.18397 109.64707,245.73032 C 110.927,251.27667 114.76678,259.80952 119.88649,262.79601 C 125.0062,265.78251 128.84598,266.20915 132.25911,263.6493 C 135.67225,261.08945 139.93868,254.68981 141.2186,249.14346 C 142.49853,243.59711 143.35181,215.86536 142.07189,211.59894 C 140.79196,207.33251 139.93868,206.05259 139.93868,206.05259 L 154.44451,228.66463 C 154.44451,228.66463 170.65692,252.98324 181.32298,265.35587 C 191.98904,277.72849 218.8675,309.30003 218.8675,309.30003 C 218.8675,309.30003 216.30765,330.63214 216.73429,336.60513 C 217.16093,342.57813 218.44086,351.96426 222.28064,360.92374 C 226.12042,369.88323 230.38684,380.12265 235.07991,380.12265 C 239.77298,380.12265 244.46604,378.84272 247.45254,374.5763 C 250.43903,370.30988 251.71896,337.45842 250.86568,335.75185 C 250.01239,334.04528 248.73246,329.35221 248.73246,329.35221 C 248.73246,329.35221 264.51823,348.97776 277.74414,358.36389 C 290.97005,367.75002 308.46239,379.26936 318.7018,384.81571 C 328.94122,390.36206 353.68647,407.42776 366.91238,417.24053 C 380.13829,427.0533 395.92406,441.98578 403.17698,450.94527 C 410.4299,459.90476 423.65581,478.25038 425.36238,489.34308 C 427.06895,500.43578 430.90873,518.35475 434.74851,527.31424 C 438.58829,536.27373 445.41457,552.0595 453.52077,550.35293 C 461.62697,548.64636 467.59997,540.54015 475.27953,529.8741 C 482.95909,519.20804 482.95909,509.82191 487.65215,505.98213 C 492.34522,502.14235 500.02478,500.43578 505.57113,496.596 C 511.11748,492.75622 520.07697,487.63651 526.04996,482.09016 C 532.02295,476.54381 536.28938,470.57082 534.58281,465.02447 C 532.87624,459.47812 529.03646,454.78505 518.79704,450.51863 C 508.55763,446.25221 486.79887,443.26571 476.13281,439.42593 C 465.46675,435.58615 457.78719,430.46644 446.69449,419.80038 C 435.60179,409.13432 411.28318,383.53579 401.89705,368.17666 C 392.51092,352.81754 375.87187,324.23251 376.29851,323.80586 z "
         style="fill:#ffffff;fill-opacity:1;fill-rule:evenodd;stroke:#000000;stroke-width:2.99604297;stroke-linecap:butt;stroke-linejoin:miter;stroke-miterlimit:4;stroke-dasharray:none;stroke-opacity:1"
         id="path15882" />
      <path
         d="M 142.54458,86.35231 C 142.54844,93.102913 137.07708,98.577408 130.32647,98.577408 C 123.57587,98.577408 118.10451,93.102913 118.10837,86.35231 C 118.10451,79.601707 123.57587,74.127212 130.32647,74.127212 C 137.07708,74.127212 142.54844,79.601707 142.54458,86.35231 L 142.54458,86.35231 z "
         style="opacity:1;fill:none;fill-opacity:1;stroke:#000000;stroke-width:1.9973619;stroke-linejoin:round;stroke-miterlimit:4;stroke-dasharray:none;stroke-dashoffset:0;stroke-opacity:1"
         id="path16759" />
      <path
         d="M 142.54458,86.35231 C 142.54844,93.102913 137.07708,98.577408 130.32647,98.577408 C 123.57587,98.577408 118.10451,93.102913 118.10837,86.35231 C 118.10451,79.601707 123.57587,74.127212 130.32647,74.127212 C 137.07708,74.127212 142.54844,79.601707 142.54458,86.35231 L 142.54458,86.35231 z "
         transform="matrix(0.320988,0,0,0.320988,88.49329,58.63429)"
         style="opacity:1;fill:#000000;fill-opacity:1;stroke:none;stroke-width:9.34614372;stroke-linejoin:round;stroke-miterlimit:4;stroke-dasharray:none;stroke-dashoffset:0;stroke-opacity:1"
         id="path17634" />
      <path
         d="M 103.67408,120.51081 C 103.67408,120.51081 102.07417,133.57673 107.9405,139.92303 C 113.80683,146.26933 127.13941,145.89602 127.13941,145.89602"
         style="fill:none;fill-opacity:0.75;fill-rule:evenodd;stroke:#000000;stroke-width:1.9973619;stroke-linecap:butt;stroke-linejoin:miter;stroke-miterlimit:4;stroke-dasharray:none;stroke-opacity:1"
         id="path17636" />
      <path
         d="M 93.328004,108.24484 C 93.328004,108.24484 97.221114,117.47098 103.78074,120.72413 C 110.34037,123.97728 115.59997,123.52402 119.56651,121.25743 C 123.48629,119.01756 125.57413,113.94566 124.15291,107.07157 C 122.84632,100.75193 115.29558,93.19504 112.20693,92.139092 C 109.08711,91.072487 106.04728,90.859165 103.14078,92.565734"
         style="fill:none;fill-opacity:0.75;fill-rule:evenodd;stroke:#000000;stroke-width:1.9973619;stroke-linecap:butt;stroke-linejoin:miter;stroke-miterlimit:4;stroke-dasharray:none;stroke-opacity:1"
         id="path17638" />
      <path
         d="M 130.97919,171.06792 C 152.52463,165.52157 172.36349,142.05624 168.95035,96.405515 C 175.14794,110.11657 177.26988,112.19128 190.92243,115.3911"
         style="fill:none;fill-opacity:0.75;fill-rule:evenodd;stroke:#000000;stroke-width:1.9973619;stroke-linecap:butt;stroke-linejoin:miter;stroke-miterlimit:4;stroke-dasharray:none;stroke-opacity:1"
         id="path17640" />
      <path
         d="M 153.85765,192.99678 C 187.646,242.77426 227.16629,295.87023 297.15644,352.58638"
         style="fill:none;fill-opacity:0.75;fill-rule:evenodd;stroke:#000000;stroke-width:1.9973619;stroke-linecap:butt;stroke-linejoin:miter;stroke-miterlimit:4;stroke-dasharray:none;stroke-opacity:1"
         id="path17642" />
      <path
         d="M 208.16035,126.62681 C 208.16035,128.13522 212.98725,135.14932 235.91506,161.62189 C 258.84287,188.09446 267.4408,183.26755 300.17326,228.59522 C 332.90572,273.92289 359.60455,322.41822 366.84491,342.93257"
         style="fill:none;fill-opacity:0.75;fill-rule:evenodd;stroke:#000000;stroke-width:1.9973619;stroke-linecap:butt;stroke-linejoin:miter;stroke-miterlimit:4;stroke-dasharray:none;stroke-opacity:1"
         id="path17644" />
      <path
         d="M 420.24256,453.04638 C 434.72328,455.15815 450.10905,449.4262 453.42755,433.13539"
         style="fill:none;fill-opacity:0.75;fill-rule:evenodd;stroke:#000000;stroke-width:1.9973619;stroke-linecap:butt;stroke-linejoin:miter;stroke-miterlimit:4;stroke-dasharray:none;stroke-opacity:1"
         id="path17646" />
    </g>
  </g>
</svg>
