<svg xmlns="http://www.w3.org/2000/svg" viewBox="0 0 210.41 100.97"><defs><style>.cls-1{fill:#1d1d1b;}.cls-2{fill:none;}.cls-3{fill:#fff;}.cls-4{fill:#fdd38f;}</style></defs><title>Asset 1</title><g id="Layer_2" data-name="Layer 2"><g id="Calque_1" data-name="Calque 1"><path class="cls-1" d="M140.61,82.66c-.36.4-.71.8-1.09,1.17a7.54,7.54,0,0,1-2,1.7c-.11.06-.27.24-.26.29.17.36-.18.37-.32.51s-.22.13-.27.22a1.82,1.82,0,0,1-1,.79h0l-.22.11.22-.34a.47.47,0,0,0-.21.11c-.57.52-1.12,1.06-1.7,1.56h0c-.1.1-.21.18-.31.27a42.86,42.86,0,0,1-5.73,3.81l0,0-.36.21h0l-.72.43a0,0,0,0,1,0,0l-.53.33h0c-.42.26-.84.53-1.25.81L119.2,97a.69.69,0,0,1-.25,0,3.15,3.15,0,0,0-1.6.23c-.45.23-.9.45-1.36.66a5.64,5.64,0,0,1-.81.31c-.23.07-.47.08-.7.16-.55.19-1.07.55-1.7.2l.18-.16c-1,.08-1.93.23-2.88.38a6,6,0,0,1-2.6.18c-.1,0-.23.07-.35.11a.8.8,0,0,0,0,.15l2.12-.08a.36.36,0,0,1-.24.19,6.51,6.51,0,0,1-3,.13,15.8,15.8,0,0,0-3.88-.41c-.77,0-1.54,0-2.31,0a6,6,0,0,0-.61,0s0,.07,0,.1l1.19.08A7.41,7.41,0,0,1,97,99.06l.63,0V99l-1.26-.17,0-.12h.84l-.12-.06c-.89-.27-1.86-.2-2.74-.56a7,7,0,0,1-.69-.23,9.94,9.94,0,0,0-1.75-.5c0,.07,0,.16-.06.24a0,0,0,0,0,0,0,2.72,2.72,0,0,1-1.15-.23h0c-.91-.37-1.68-1.07-2.65-1.36a1.51,1.51,0,0,0,.11.22c-1-.25-1.81-1-2.84-1.16l.33.28c-.47-.16-.88-.3-1.29-.46s-.77-.12-1.12-.5a1.9,1.9,0,0,0-1.5-.58,1.57,1.57,0,0,1-1.09-.57l.63.17,0,0-.89-.43a.48.48,0,0,0,.1-.09l-2.37-1.45a.68.68,0,0,0-.22-.09,5.7,5.7,0,0,1-.58-.06c-.68-.19-1-.79-1.52-1.22.6,0,.85.75,1.54.77a.83.83,0,0,0-.18-.19c-.67-.43-1.35-.83-2-1.28s-1.39-.58-1.81-1.31c-.16-.26-.55-.39-.83-.59l0-.09.48.06c-.22-.17-.4-.29-.57-.43a5.08,5.08,0,0,1-1-1,7.6,7.6,0,0,0-1.62-1.68,21,21,0,0,1-3.75-4.07c-.45-.65-.9-1.3-1.41-1.9a4,4,0,0,1-.83-1.54,2,2,0,0,0-.29-.53l-.08,0,0,.45-.11,0c-.35-.52-.68-1-1-1.57,0,0-.06-.18,0-.21.29-.24,0-.39-.08-.58-.54-.81-1.06-1.62-1.59-2.44,0,0,0-.08,0-.2l.2.32,0,0c0-.18-.11-.36-.16-.54l0,0,.25.31c-.45-1-.85-1.84-1.3-2.71a10.92,10.92,0,0,0-.72-1.1.45.45,0,0,1-.09-.31,1.58,1.58,0,0,0-.47-1.31,3.78,3.78,0,0,1-.8-1.63H56c.29.69.57,1.38.86,2.08a.85.85,0,0,1,0,.17,10.35,10.35,0,0,0,.37,1.6c.33.83.75,1.61,1.14,2.41.19.4.4.79.56,1.2.09.22,0,.5.13.7.54,1.07,1.14,2.12,1.67,3.21.44.89,1.24,1.5,1.69,2.4a12.61,12.61,0,0,0,3,3.78.89.89,0,0,1,.18.3,3.68,3.68,0,0,0,.15.35c.15.21.33.4.49.6a30.06,30.06,0,0,0,4.38,4.64c.5.42,1,.87,1.48,1.28,1.17,1,2.31,2,3.55,2.82a13.41,13.41,0,0,0,2.25,1c.25.1.49.23.74.35l0-.05-.64-.46a2.2,2.2,0,0,1,1.9.93l-.52-.28a.47.47,0,0,0,.18.33,27.41,27.41,0,0,0,2.84,1.71c1.84.85,3.73,1.61,5.62,2.34a41.07,41.07,0,0,0,7.08,2c.48.1,1,.16,1.55.26l-.37-.38,1.76.29a.49.49,0,0,1,0,.12h-.69c.92.36,1.82-.16,2.68.22l-1,.1a3.4,3.4,0,0,0,1,.09c.7,0,1.41-.15,2.12-.14.53,0,1.07.2,1.61.24s1.31,0,2,0v-.06l-.47-.15c2.3-.29,4.6-.3,6.87-.68A59.75,59.75,0,0,0,119,98.31a1.5,1.5,0,0,1-.09-.18L119,98a0,0,0,0,0,0,0l.1,0c.22-.11.43-.22.52-.16a.78.78,0,0,0,.83,0,16.92,16.92,0,0,0,3.9-1.38c.51-.32,1.18-.39,1.51-1a.14.14,0,0,1,.14,0c.3.27.54,0,.78-.1L129.31,94a39.51,39.51,0,0,0,5.39-3.46l.1-.11-.25-.14a3.73,3.73,0,0,1,.47-.33c.4-.22.82-.4,1.21-.63a2.24,2.24,0,0,0,.52-.5c.37-.42.7-.89,1.1-1.29l.47-.46c.94-.91,1.9-1.79,2.81-2.72a.71.71,0,0,0,.07-.09c.16-.16.31-.32.46-.49.33-.36.65-.73,1-1.1ZM140,15.83l2.66,2.46a6.28,6.28,0,0,0-.88-1.14A20.75,20.75,0,0,1,140,15.36c-.51-.55-.94-1.18-1.45-1.73a12.46,12.46,0,0,0-1.14-1s-.08,0-.17,0l.33.48h-.12l-2.31-1.65-.06,0c.14-.36-.24-.29-.37-.42-.31-.3-.64-.59-1-.89l.07-.07H134a21.46,21.46,0,0,0-4.33-2.88c-1.3-.58-2.58-1.21-3.86-1.84h0c-.32-.17-.65-.32-1-.48s-.79-.33-1.17-.52-.82-.45-1.23-.69l0,.09.35.24,0,0-.1,0-1.64-.74s0,0,0,0l.86.28a1,1,0,0,1,0-.1L121.05,3h0l-.66-.22a1.91,1.91,0,0,0-.33-.06,4.67,4.67,0,0,1-.67-.13c-.39-.11-.78-.23-1.16-.37h0c-.31-.11-.62-.23-.93-.37A6.68,6.68,0,0,0,116,1.45c-.49-.11-1-.21-1.48-.33-.23-.06-.46-.07-.68-.14s-.45-.15-.69-.23h0a3,3,0,0,0-.51-.14,30.53,30.53,0,0,0-3.29-.43c-.76,0-1.55-.41-2.31,0,0,0-.1,0-.14,0l-3.39,0c-.1,0-.27,0-.27.06s-.06.18-.14.19h0a1.47,1.47,0,0,1-.21,0,7.32,7.32,0,0,1-.81,0h-.32c-1.27,0-2.54,0-3.81,0a15.62,15.62,0,0,0-3.32.59l-.17.05-.14,0-1.81.48c-.44.11-.88.21-1.33.28-.76.12-1.51.29-2.26.43-.43.07-.88.11-1.38.18.12.12.16.18.21.23l-.43.17.23.22a7.1,7.1,0,0,1-.69.33c-.57.18-1.16.33-1.74.52h0a5.89,5.89,0,0,0-.59.21,12.32,12.32,0,0,0-1.6.86l-.38.23h0L80.29,6.77c-.24.14-.44.36-.77.26-.07,0-.2.08-.28.15a6.15,6.15,0,0,0-.64.61,2.29,2.29,0,0,1-1.23.62c.06-.13.09-.22.14-.33-1.13.81-2.1,1.79-3.25,2.54-.4.26-.73.65-1.13.94s-1,.6-1.41.95c-.81.64-1.59,1.32-2.34,2h0c-.38.35-.74.71-1.1,1.08h0c-.35.35-.69.7-1,1.07h0c-.45.48-.89,1-1.33,1.45a6.2,6.2,0,0,0-1.3,1.64c-.25.59-1,.93-1.22,1.59a.21.21,0,0,1-.17.12c-.28-.05-.32.18-.43.33s-.43.6-.63.91l-1.36,2.16a.58.58,0,0,0,0-.13l-.37.7,0,0,.09-.35a5.1,5.1,0,0,0-.49.92,1.48,1.48,0,0,0-.13,1.21.47.47,0,0,1,0,.24h0a.46.46,0,0,1-.12.27l-.06.09h0a4,4,0,0,0-.41.76h0a3,3,0,0,0-.23.75,1.74,1.74,0,0,1-.26.48h0l-.07,0c0-.11,0-.21.06-.41-.19.4-.37.7-.49,1q-.33.8-.63,1.59h0a2,2,0,0,1-.09.26l0,.07-.1.27-.17.47c-.05.15-.1.31-.16.47-.15.48-.29,1-.41,1.46-.23.95-.8,1.81-.65,2.86a.82.82,0,0,1-.06.4c0,.14-.1.28-.14.42l-.22.87h1a2.88,2.88,0,0,1,.18-.7h0a1.48,1.48,0,0,1,.1-.27c.19-.47.4-.93.55-1.41s.29-1.08.45-1.67a2.85,2.85,0,0,1,.2.22c.08-.31.14-.58.22-.85s.08-.28.11-.42a8.6,8.6,0,0,1,1-3.2s0-.12,0-.18a1.14,1.14,0,0,1-.06-.4.35.35,0,0,1,0-.13c.1-.44.22-.88.34-1.32l-.07,0-.35.33-.05,0c.22-.52.42-1,.64-1.55H60c0,.06,0,.13,0,.2l.41-.49A1,1,0,0,1,60,28.76a1.21,1.21,0,0,1,0-.14h-.09c0,.42,0,.83.05,1.25a1.64,1.64,0,0,0,.44-.61.75.75,0,0,1,.45-.58l.1-.08,0,0c.15-.28.26-.57.42-.84s.18-.3.28-.44l.08-.13a12.68,12.68,0,0,0,.73-1.22,7.25,7.25,0,0,0,.36-.87h0c.14-.37.27-.75.43-1.12a16.65,16.65,0,0,1,1.84-3.36c.18.12.34.21.41.25-.58.91-1.16,1.84-1.75,2.75l.08.07s0,0,0,0,.16-.1.2-.18c.19-.35.37-.7.58-1,0,0,0,0,0,0a5.35,5.35,0,0,1,.39-.58h0a5.65,5.65,0,0,1,1-1.08.45.45,0,0,0,.11-.23,1.42,1.42,0,0,1,.12-.44l.95-1.26.32-.41h0l.44-.57.1.18q.11-.15.21-.33h0a3.8,3.8,0,0,1,.58-.8h0c.25-.23.51-.45.77-.65s.74-.59,1.09-.9l0,0c1.34-1.18,2.66-2.37,4-3.56l.35-.31c.15-.13.28-.28.45-.45,0,.07,0,.13,0,.18s0,.16,0,.25l.48-.6h0l2-2.48.22.19c.18.15.35.28.39.44V9a.9.9,0,0,1-.2.46l-.14.25,1.6-1c-.18,0-.31-.09-.43-.11l-.07,0-.11,0V8.44l2.41-.81a.9.9,0,0,1,.17-.5,1.85,1.85,0,0,1,.6-.46l.09.19c0,.09.07.18.12.27L83,7l.92-.73h0l.21-.17a.22.22,0,0,0,0,.08v0c.13,0,.26,0,.39.07a.65.65,0,0,0,.37,0,13.35,13.35,0,0,0,2.18-1A15.09,15.09,0,0,1,88.91,4h0c.47-.26,1-.46,1.53-.72a1,1,0,0,0,0,.14c-.12.38,0,.5.33.48a1.6,1.6,0,0,0,.7-.25c.34-.22.66-.46,1-.69h0L93,2.62l.54-.34a8,8,0,0,1,1.81-.75,4.27,4.27,0,0,1,.88-.16L97,1.28l.07,0-1.47.74L92.62,3.52l0,.11,1.5-.19-.45.24s.06,0,.08,0a2.89,2.89,0,0,1,.29,0,12.13,12.13,0,0,0,3-.78c.34-.13.72-.21,1.07-.31l0-.12-3.27.82c.69-.74,3.65-1.59,4.27-1.25l-.48.49,1.85-.3s0,0,0,.07l-.21.12c.8-.07,1.59-.26,2.38-.26a17.08,17.08,0,0,1,2.38.28c-.16-.13-.28-.22-.38-.32a.94.94,0,0,1-.27-1c.06-.12.23-.28.34-.27.52,0,1,.14,1.57.22l-.25.46c.28,0,.28,0,.37-.42.58.14,1.16.3,1.74.45v.1l-1,.45a.5.5,0,0,1,0,.13c.1,0,.2,0,.3,0a3.86,3.86,0,0,1,.68,0,5.09,5.09,0,0,0,.82.19,5.87,5.87,0,0,1,2,0,6.85,6.85,0,0,0,.76.16.83.83,0,0,0,.31,0,6.84,6.84,0,0,1,.74-.21,4.62,4.62,0,0,1,2.19.31c1.53.6,3.13,1,4.68,1.51a10.45,10.45,0,0,1,1.4.65,3.64,3.64,0,0,1,.46.3s0-.08,0-.12.14-.13.21-.13a4.26,4.26,0,0,1,.95.07,9.06,9.06,0,0,1,3.93,1.5,8.16,8.16,0,0,0,2.5,1.15,8.4,8.4,0,0,1,2.55,1.38,4.57,4.57,0,0,1,.43.52.74.74,0,0,1-.89-.05,11.83,11.83,0,0,0-1.11-.79c-.38-.23-.79-.4-1.18-.6a.5.5,0,0,0,.23.26A42.81,42.81,0,0,1,135,12.47a6.47,6.47,0,0,0,.88.54l.06-.09-.7-.6a4.36,4.36,0,0,1,1,.41,12,12,0,0,1,2.64,2.13.82.82,0,0,1,.12.32c0,.08,0,.18,0,.23.26.31.53.61.82.9a3.27,3.27,0,0,0,.36.25l0,0-.38-.6ZM88.15,3a1,1,0,0,1,0-.17l1.07-.31,0,.09Z"/><path class="cls-1" d="M145,22.16l-.75-1.39c.38.28.79.56,1.19.87.62.48.73,1.25,1.07,1.91l-1.27-1.94a8.34,8.34,0,0,1,0,1c0,.32-.21.37-.45.17a1.37,1.37,0,0,1-.29-.34A6.23,6.23,0,0,0,143,20.6a4.5,4.5,0,0,1-.75-1.1c.15.08.28.12.38.19.39.27.77.55,1.13.84.08.06.1.19.16.29l.88,1.42Z"/><path class="cls-1" d="M148.2,26.31l-.39-.28,0,.22a3,3,0,0,1-1-1.4l.08-.08.6.51-.67-1.12A5.22,5.22,0,0,1,148.2,26.31Z"/><path class="cls-1" d="M124.31,6l-2.63-.69,0-.1.87.23,0-.08-.39-.21A5.25,5.25,0,0,1,124.31,6Z"/><path class="cls-1" d="M151.19,34.24l.47,2.38-.06,0-.26-.54.14,0A2.57,2.57,0,0,1,151.19,34.24Z"/><path class="cls-1" d="M76.74,10.73c.17-.36.3-.67.46-1,0,0,.15-.07.22-.06s.35.07.54.11Z"/><path class="cls-1" d="M88.53,5a3.27,3.27,0,0,1,1.88-.62C89.76,4.37,89.36,5.17,88.53,5Z"/><path class="cls-1" d="M149.14,27.13c.77.91,1,1.33.87,1.95Z"/><path class="cls-1" d="M149.54,29.24l-1-2.18.11-.06,1,2.19Z"/><path class="cls-1" d="M148.82,28.76l.78,1.49-.1.05A2.74,2.74,0,0,1,148.82,28.76Z"/><path class="cls-1" d="M141.75,18.1,140.81,17l.1-.1c.34.35.78.61,1,1.08Z"/><path class="cls-1" d="M97.53,98.63l2.55.19v.12l-2.55-.2Z"/><path class="cls-1" d="M135.66,11.3l-1-.6.08-.13,1,.57Z"/><path class="cls-1" d="M125.51,6.14l-1.26-.53,0-.12,1.25.52Z"/><path class="cls-1" d="M152.63,36.56,152,35.41l.09,0,.26.52.06-.31h.05l.17,1Z"/><path class="cls-1" d="M152.45,37.39c-.47-.07-.54-.21-.42-.81Z"/><path class="cls-1" d="M137.63,14.36l-1-.9.06-.07,1,.9Z"/><path class="cls-1" d="M124.67,6.48l1,.36,0,.11-1-.36Z"/><path class="cls-1" d="M61.37,72.08l.51.64-.14.11-.46-.69Z"/><path class="cls-1" d="M88.11,2.8l1.07-.31,0,.1L88.15,3Z"/><path class="cls-1" d="M140.21,83.55c-1.43,1.51-2.94,3-4.31,4.5l-.25.19h0l-1.91,1.43h0l-2.65,2a.48.48,0,0,1-.23.1,3.14,3.14,0,0,0-1.49.63c-.38.33-.76.66-1.15,1a5,5,0,0,1-.52.39h0a.91.91,0,0,1-.16.11,1.24,1.24,0,0,1-.2.1h0a2.78,2.78,0,0,0-.42.22l-.3.22h0a2.12,2.12,0,0,1-.53.33h0a1.07,1.07,0,0,1-.76.06c0-.07.09-.14.14-.2-.93.33-1.82.71-2.69,1.1a6.13,6.13,0,0,1-2.47.83c-.11,0-.21.13-.31.19a.59.59,0,0,0,.06.14l2-.61a.4.4,0,0,1-.19.24,6.35,6.35,0,0,1-2.9.89,15.92,15.92,0,0,0-3.87.6c-.74.2-1.49.34-2.24.52l-.58.2a.54.54,0,0,0,0,.1l1.18-.23a7.48,7.48,0,0,1-3.3.7l.6-.21s0,0,0-.06l-1.26.15a.52.52,0,0,1,0-.11l.81-.22-.13,0c-.93,0-1.85.27-2.8.16a6,6,0,0,1-.71-.06,10.08,10.08,0,0,0-1.83,0v.28c-1.43.39-2.67-.54-4.08-.58l.15.18c-1.06,0-2-.53-3-.41l.39.2c-.5,0-.93-.07-1.37-.12s-.77.08-1.2-.21a2,2,0,0,0-1.61-.18,1.55,1.55,0,0,1-1.19-.27h.65v0l-1-.2c0-.05.06-.09.08-.1L90,96.63a.63.63,0,0,0-.24,0,5.62,5.62,0,0,1-.57.09,4.12,4.12,0,0,1-1.78-.8c.58-.15,1,.51,1.69.35a1.59,1.59,0,0,0-.23-.13c-.75-.25-1.51-.46-2.25-.74s-1.5-.21-2.09-.8c-.22-.22-.63-.25-1-.36,0,0,0-.07,0-.1l.48-.07a6.37,6.37,0,0,1-.66-.27,5.14,5.14,0,0,1-1.22-.67,7.25,7.25,0,0,0-2-1.22,20.56,20.56,0,0,1-4.66-3c-.6-.51-1.2-1-1.84-1.48a3.77,3.77,0,0,1-1.2-1.28,2.12,2.12,0,0,0-.41-.44l-.07.06c0,.14.09.29.14.43l-.1.07c-.46-.41-.93-.83-1.39-1.26,0,0-.09-.16-.07-.19.21-.31-.07-.4-.23-.54-.73-.65-1.44-1.31-2.15-2,0,0,0-.08-.08-.2l.28.26,0,0c-.1-.16-.2-.32-.29-.49l0,0,.32.23c-.68-.81-1.29-1.57-1.94-2.3a11.5,11.5,0,0,0-1-.87.5.5,0,0,1-.16-.28,1.54,1.54,0,0,0-.79-1.15A4,4,0,0,1,63.44,76,5.24,5.24,0,0,0,63,75a23,23,0,0,1-1.42-2.57c-.11-.18-.14-.43-.29-.58a10.36,10.36,0,0,1-1.41-2.4s0-.07,0-.22c.29.51.53.94.78,1.36l.1,0a4.1,4.1,0,0,0-.33-1c-.44-.64-.6-1.43-1.1-2.06a3,3,0,0,1-.26-1c-.09-.31-.17-.61-.26-.91H56.46a1.72,1.72,0,0,1,.07.21A9.78,9.78,0,0,0,57,67.07c.52,1.19,1,2.38,1.58,3.57l0,0c0-.07.05-.13.1-.31.18.37.33.64.45.94a17.52,17.52,0,0,0,2.08,4.34l2,2.63a.83.83,0,0,1,.09.16A10.62,10.62,0,0,0,64,79.9c.53.71,1.14,1.36,1.71,2,.29.33.59.66.86,1,.13.19.14.47.29.64.8.91,1.64,1.77,2.43,2.68.64.75,1.58,1.14,2.24,1.89a12.5,12.5,0,0,0,3.89,2.9c.11,0,.18.16.26.24a2.37,2.37,0,0,0,.23.3c.2.17.42.3.63.46A28.84,28.84,0,0,0,82,95.45c.58.29,1.15.6,1.75.87,1.38.63,2.73,1.31,4.15,1.82a12.73,12.73,0,0,0,2.42.39c.27,0,.54.1.81.15l0-.05-.74-.29a2.19,2.19,0,0,1,.34-.1h0a1.91,1.91,0,0,1,1.16.2,6.22,6.22,0,0,1,.56.32l-.58-.14a.5.5,0,0,0,.27.28,27.34,27.34,0,0,0,3.17.93c2,.36,4,.62,6,.85a42,42,0,0,0,7.35.13l1.57-.15-.45-.27,1.78-.17s0,.09,0,.13l-.68.16c1,.12,1.73-.61,2.65-.45l-.93.33a3.7,3.7,0,0,0,1-.14c.68-.22,1.33-.51,2-.68.52-.12,1.09-.07,1.62-.17s1.19-.3,1.78-.47h0l.11,0s0,0,0,0,0,0,0,0l-.49,0c2.14-.86,4.37-1.45,6.48-2.4A59.86,59.86,0,0,0,131.18,93a1.53,1.53,0,0,1-.13-.15c.23-.18.56-.56.7-.5a.79.79,0,0,0,.81-.18A16.55,16.55,0,0,0,136,89.88c.41-.43,1-.68,1.22-1.33,0,0,.09-.07.12-.06.36.18.53-.1.73-.29l.26-.25,1.79-1.73,1-1,.07-.08c.53-.52,1.05-1.05,1.55-1.6Zm-9.5-75.64,3.19,1.7a6.26,6.26,0,0,0-1.13-.88,19.82,19.82,0,0,1-2.24-1.27c-.63-.4-1.2-.89-1.83-1.3a13.49,13.49,0,0,0-1.36-.71s-.09,0-.17,0l.44.37c-.08,0-.11,0-.12,0l-2.66-1-.07,0c0-.39-.3-.22-.46-.31-.38-.21-.77-.41-1.16-.61a.26.26,0,0,1,0-.09l.2-.06a20.76,20.76,0,0,0-4.92-1.69c-1.77-.3-3.52-.69-5.28-1-.41-.08-.85-.11-1.26-.2S111,.61,110.57.49l0,.09.4.15a.43.43,0,0,0,0,.05L109.05.46v0l.91,0V.37c-.51,0-1-.09-1.54-.09-.33,0-.67.07-1,.07a18.33,18.33,0,0,1-2.21-.2,15,15,0,0,0-2.85,0c-.23,0-.46.05-.69.05-.42,0-.84-.1-1.25-.07a30.37,30.37,0,0,0-3.3.42c-.74.16-1.6,0-2.22.61,0,0-.1,0-.15,0l-3.26.9c-.09,0-.24.09-.24.12.05.27-.17.24-.29.29s-.52.17-.78.24c-1.33.36-2.67.69-4,1.1C84,4.48,82.11,6,80,6.9c-.7.31-1.38.67-2.08,1-.4.18-.82.33-1.29.52l.26.17-.36.28.28.14c-.22.18-.39.37-.59.5-.69.44-1.42.82-2.08,1.29A14,14,0,0,0,72.82,12l-2.18,2.2c-.19.2-.33.46-.68.45-.07,0-.17.13-.23.21s-.24.36-.35.55h0l-.11.2a2.15,2.15,0,0,1-1,.89h0l0,0c0-.14,0-.23.06-.34-.38.45-.72.92-1.06,1.4h0a20.59,20.59,0,0,1-1.44,1.87c-.33.36-.56.82-.86,1.2s-.78.82-1.12,1.27a45.74,45.74,0,0,0-4,6.44h0l-.18.36h0s-.05.09-.07.14c-.11.21-.22.41-.34.61h0a3.66,3.66,0,0,0-.49,1.24h0a.13.13,0,0,0,0,.06c-.1.63-.71,1.14-.78,1.84,0,.06-.09.16-.14.16a.24.24,0,0,0-.2.1h0a.73.73,0,0,0-.09.26.33.33,0,0,1,0,.06l-.1.27-.17.47c0,.1-.07.2-.1.3l-.06.18c-.25.77-.49,1.53-.72,2.25l-.07-.11c-.07.29-.12.53-.18.77h0V37a5.11,5.11,0,0,0-.24,1A1.55,1.55,0,0,0,56,39.18l0,0a.44.44,0,0,1,.07.53,3.64,3.64,0,0,0-.22.71h.37c0-.2.05-.4.08-.6l.06,0a1.46,1.46,0,0,1,.07.19l.28-.58a1.45,1.45,0,0,1,.11.31h0a1,1,0,0,1-.13.7h.53a.52.52,0,0,1,.11-.1.26.26,0,0,0,.09-.14c.07-.31.12-.62.2-.92.19-.68.45-1.33.6-2s.15-1.28.23-1.93a1.37,1.37,0,0,1,0-.19,16.76,16.76,0,0,1,.94-3.72h0l.44.13c-.33,1-.67,2.07-1,3.11l.12.05a.78.78,0,0,0,.15-.22,8.24,8.24,0,0,1,1.24-3.14.58.58,0,0,0,0-.26,1.77,1.77,0,0,1,0-.46l.48-1.16c.2-.48.41-1,.61-1.45l.11.13s0,0,0,0a.75.75,0,0,0,.05-.16,5.08,5.08,0,0,1,.44-1.14A11.43,11.43,0,0,1,62.8,26h0c.26-.34.52-.68.76-1l.25-.38c.27-.4.54-.79.8-1.2a0,0,0,0,0,0,0l.39-.58a0,0,0,0,1,0,0c.59-.9,1.19-1.8,1.79-2.7.11-.17.19-.34.32-.55,0,.09,0,.17.07.24l.06.17c.08-.2.17-.39.26-.58v0c.47-1,.92-2,1.38-3,.29.16.63.25.74.45a.55.55,0,0,1,0,.38c0,.14-.1.29-.13.43l1.3-1.37h-.63l0-.09,2.13-1.4a1.19,1.19,0,0,1,.5-1.13l.32.4,1-1.37s0,.07,0,.11c.19,0,.42,0,.59-.07a.53.53,0,0,0,.15-.08,5.21,5.21,0,0,1,.66-.5l.49-.35h0a3.37,3.37,0,0,0,.7-.66,17.76,17.76,0,0,1,1.51-1.62h0c.38-.37.82-.69,1.3-1.09,0,.53.07.66.43.53a1.55,1.55,0,0,0,.62-.42c.56-.62,1.07-1.29,1.66-1.88l.24-.22h0a8.16,8.16,0,0,1,1.31-1,11.13,11.13,0,0,1,1.5-.65s.05,0,.08,0L85.14,5h0L81.75,8l.06.1L81.93,8l.69-.27.59-.24-.38.34.09,0,0,0a2.44,2.44,0,0,1,.24-.1,8.18,8.18,0,0,0,1.3-.62,12.87,12.87,0,0,0,1.41-.89c.31-.22.64-.39,1-.58l-.06-.1L84.1,7l-.25.14a.08.08,0,0,1,0,0h0c.55-.9,3.1-2.4,3.78-2.23l-.34.59L89,4.73l0,.06a1.85,1.85,0,0,0-.14.14h0l0,0c.52-.19,1-.42,1.53-.62a5.88,5.88,0,0,1,.71-.23,7,7,0,0,1,1.31-.22h0l1.07-.11c-.19-.1-.33-.14-.45-.22A.18.18,0,0,1,93,3.51a.88.88,0,0,1-.46-.85v0c0-.14.15-.34.26-.35.51-.09,1-.13,1.58-.19l0,.09c0,.16-.07.29-.11.42.27-.06.28-.06.25-.45V2.09h1.8a.36.36,0,0,1,0,.09l-.1.08-.71.6a.41.41,0,0,1,0,.09s0,0,0,0l.28-.11a4.57,4.57,0,0,1,.66-.18,4.58,4.58,0,0,0,.83,0,6,6,0,0,1,1.91-.45,6.79,6.79,0,0,0,.78,0,.79.79,0,0,0,.29-.11,4.4,4.4,0,0,1,.66-.39,7.76,7.76,0,0,1,.79-.22h0a4.21,4.21,0,0,1,1.33,0h.07c1.63.2,3.27.18,4.91.28a11.25,11.25,0,0,1,1.52.27,5.34,5.34,0,0,1,.52.18l0-.12c.06-.06.11-.15.18-.17a3.82,3.82,0,0,1,.93-.18c.66,0,1.32,0,2,0h0a5.71,5.71,0,0,1,2.22.49,4.26,4.26,0,0,0,.63.22,13,13,0,0,0,2.08.25,8.48,8.48,0,0,1,2.81.7,3.72,3.72,0,0,1,.55.39,1,1,0,0,1-.41.23h0a.84.84,0,0,1-.46,0l-.53-.23-.74-.26c-.35-.1-.72-.16-1.09-.23h0l-.19,0a.42.42,0,0,0,.28.19c1.44.46,2.87.93,4.27,1.49l.1,0a24.24,24.24,0,0,1,2.38,1.09,2.75,2.75,0,0,0,.72.22h0l.26.06,0-.1-.83-.39a3.88,3.88,0,0,1,1.09.13,11.7,11.7,0,0,1,3.08,1.39.84.84,0,0,1,.2.28c0,.07,0,.18.09.22.34.23.68.45,1,.66a2.48,2.48,0,0,0,.41.15l0-.06L130.65,8S130.7,8,130.71,7.91ZM78.16,7.84a.41.41,0,0,1,0,.09l-.92.64-.09-.15Z"/><path class="cls-1" d="M137.11,12.78,136,11.62l1.36.54c.73.31,1,1,1.52,1.58l-1.71-1.56c.1.36.22.65.27.94s-.11.41-.4.27a1.24,1.24,0,0,1-.35-.25,6.31,6.31,0,0,0-1.89-1.38,4.61,4.61,0,0,1-1-.87,3.34,3.34,0,0,1,.43.08c.44.17.87.34,1.3.53.09,0,.15.16.23.24L137,12.89Z"/><path class="cls-1" d="M141.28,16l-.44-.17,0,.22a3,3,0,0,1-1.29-1.12l.06-.09.71.33-.94-.91A5.27,5.27,0,0,1,141.28,16Z"/><path class="cls-1" d="M152.5,35.85l1.28,4.28a1,1,0,0,1-.43-.75c-.19-.86-.48-1.7-.72-2.55-.09-.31-.15-.64-.22-1Z"/><path class="cls-1" d="M60,68h-.11c-.16-.25-.34-.49-.48-.76,0-.09,0-.24,0-.36,0-.29,0-.57,0-.85a2.28,2.28,0,0,1,0-.37.43.43,0,0,1,0-.11l0,.11C59.63,66.46,59.83,67.23,60,68Z"/><path class="cls-1" d="M113,2.35h-2.71v-.1h.89V2.17l-.43-.11A5.4,5.4,0,0,1,113,2.35Z"/><path class="cls-1" d="M146.18,22.9l1.06,2.18-.06,0-.38-.47h.14A2.64,2.64,0,0,1,146.18,22.9Z"/><path class="cls-1" d="M68.21,19c.07-.39.12-.72.2-1.05,0-.05.12-.1.2-.11s.35,0,.55,0Z"/><path class="cls-1" d="M78.15,10.4a3.36,3.36,0,0,1,1.67-1.08C79.2,9.52,79,10.39,78.15,10.4Z"/><path class="cls-1" d="M142.4,16.53c1,.69,1.28,1,1.34,1.67Z"/><path class="cls-1" d="M143.32,18.48l-1.52-1.87.1-.08,1.52,1.87Z"/><path class="cls-1" d="M142.5,18.19l1.14,1.24-.09.08A2.8,2.8,0,0,1,142.5,18.19Z"/><path class="cls-1" d="M133,9.67l-1.18-.81.08-.12c.41.26.9.39,1.2.81Z"/><path class="cls-1" d="M110.54,98.76l2.51-.47,0,.12-2.52.45Z"/><path class="cls-1" d="M151,30.16l-.58-1.24.2-.09.53,1.29Z"/><path class="cls-1" d="M151.52,32.08a1.46,1.46,0,0,1-.35-1.32l.45,1.29Z"/><path class="cls-1" d="M125.36,4.62l-1.11-.33,0-.14,1.13.3Z"/><path class="cls-1" d="M114.24,2.19,112.89,2V1.88l1.34.18Z"/><path class="cls-1" d="M148.16,24.78l-.86-1,.08-.07.38.44,0-.31h0l.41.88Z"/><path class="cls-1" d="M148.2,25.62c-.47.05-.58-.06-.61-.68Z"/><path class="cls-1" d="M128,7.09l-1.16-.63,0-.08,1.17.62Z"/><path class="cls-1" d="M113.51,2.74l1.1.08v.12l-1.1-.09Z"/><path class="cls-1" d="M68.85,82.21l.65.49-.11.13-.62-.54Z"/><path class="cls-1" d="M77.21,8.42l1-.58,0,.09-.92.64Z"/><path class="cls-2" d="M56.58,50.49h0Z"/><path class="cls-3" d="M56.57,50.48h0Z"/><path class="cls-3" d="M56.69,50.44l-.06.09a.28.28,0,0,1,0-.09Z"/><path class="cls-3" d="M59.44,50.54h0a.43.43,0,0,1,0-.11Z"/><path class="cls-1" d="M24.3,71.11a61,61,0,0,1-6.51-2.71c-2.25-1.07-4.89-2.4-8-4a7.61,7.61,0,0,1-5.65,3.31H4a3.86,3.86,0,0,1-2-.58A4.25,4.25,0,0,1,.56,65.58a3.73,3.73,0,0,1,.11-4.1A3.86,3.86,0,0,1,2.31,60a5,5,0,0,1,2.07-.45,7.48,7.48,0,0,1,3.09.71c.47.2,1,.45,1.53.74a51.56,51.56,0,0,0,4.07-9.32,8.52,8.52,0,0,1-4.4-2.31,1.36,1.36,0,0,1-.33-.89,1.34,1.34,0,0,1,.42-1,1.4,1.4,0,0,1,.89-.33,1.36,1.36,0,0,1,1,.42A6.51,6.51,0,0,0,14,49.17l.45-1.29L15,45.94c1.2-3.55,2.16-6.31,2.87-8.22Q23,24.48,28,22.82a5,5,0,0,1,4.32.4q2.54,1.47,2.53,5.52A21.69,21.69,0,0,1,34,34.63c-.6,2.11-1.27,4.13-2,6A18.85,18.85,0,0,1,28.08,47a16.06,16.06,0,0,1-8.65,4.76,17.7,17.7,0,0,1-3,.27h-.6A57.39,57.39,0,0,1,11.36,62.2l1.18.6q2.73,1.42,5.94,3c2.13,1,4.22,1.91,6.24,2.67a15.9,15.9,0,0,0,5.18,1.11,4.21,4.21,0,0,0,1.6-.27A1.9,1.9,0,0,0,32.68,68,1.36,1.36,0,0,1,34,67.15a1.54,1.54,0,0,1,.42.07,1.36,1.36,0,0,1,.89,1.27,1.23,1.23,0,0,1-.07.42,4.57,4.57,0,0,1-2.69,2.87A7,7,0,0,1,30,72.2,17.56,17.56,0,0,1,24.3,71.11ZM7.43,63.2a7.78,7.78,0,0,0-.83-.4l-.24-.12a4.72,4.72,0,0,0-2-.46,2,2,0,0,0-.84.15,1.26,1.26,0,0,0-.65.51,1.32,1.32,0,0,0-.22.74,1.19,1.19,0,0,0,.2.64,1.41,1.41,0,0,0,.53.58,1.24,1.24,0,0,0,.69.22A5,5,0,0,0,7.43,63.2Zm11.49-14A13.66,13.66,0,0,0,22.32,48c3.16-1.46,5.54-4.24,7.14-8.31,1.82-4.85,2.71-8.52,2.71-11,0-1.78-.38-2.85-1.15-3.21a2.6,2.6,0,0,0-1.27-.37,2.31,2.31,0,0,0-.85.15c-1.44.45-3.11,2.31-5,5.65a84.52,84.52,0,0,0-6.07,15c-.38,1.13-.76,2.27-1.16,3.42A13.45,13.45,0,0,0,18.92,49.17Z"/><path class="cls-1" d="M36.48,62.82a5.57,5.57,0,0,1-5.31-3.51,8.91,8.91,0,0,1-.56-3.23A16.06,16.06,0,0,1,32,49.7a17.41,17.41,0,0,1,3.49-5.42,7.31,7.31,0,0,1,5.07-2.45,5.43,5.43,0,0,1,2,.38,3.5,3.5,0,0,1,1.74,1.47,4.37,4.37,0,0,1,.6,2.33,7.27,7.27,0,0,1-.42,2.36,10.77,10.77,0,0,1-1.94,3.47,10.34,10.34,0,0,1-3.22,2.55,8.84,8.84,0,0,1-4.2,1,9.4,9.4,0,0,1-1.8-.16,8.46,8.46,0,0,0-.05.87q0,4.06,3.38,4.09A10.16,10.16,0,0,0,42,58.26a12.86,12.86,0,0,0,4.56-5.11,1.4,1.4,0,0,1,1.22-.78,1.21,1.21,0,0,1,.56.13,1.37,1.37,0,0,1,.78,1.2,1.29,1.29,0,0,1-.14.56,15.17,15.17,0,0,1-5.64,6.29,12.83,12.83,0,0,1-6.65,2.27ZM38.35,51.9a8.46,8.46,0,0,0,2.34-2A6.5,6.5,0,0,0,42.22,46a1.88,1.88,0,0,0-.16-.84c-.2-.47-.68-.71-1.48-.71a4.59,4.59,0,0,0-3.21,1.66,15.82,15.82,0,0,0-3.58,6.47,6.78,6.78,0,0,0,1.32.11A6.17,6.17,0,0,0,38.35,51.9Z"/><path class="cls-1" d="M70,61.66q-3.87-1.9-5.63-7.53a18.63,18.63,0,0,1-.67-4.94,21.15,21.15,0,0,1,1.14-6.74,25.7,25.7,0,0,1,3.33-6.56,29.88,29.88,0,0,1,5.72-6.22,22,22,0,0,1,6-3.58,16,16,0,0,1,5.72-1.16A10.39,10.39,0,0,1,90.36,26,5.48,5.48,0,0,1,93,28.76a9.75,9.75,0,0,1,.78,3.89,15.87,15.87,0,0,1-.54,4.07,20.08,20.08,0,0,1-1.29,3.64,18.6,18.6,0,0,1-4.69,6A15.07,15.07,0,0,1,81,49.81a7.79,7.79,0,0,1-1.76.2,5.85,5.85,0,0,1-3.71-1.24,4.52,4.52,0,0,1-1.2-1.8,6.86,6.86,0,0,1-.43-2.47l0-.74a8.17,8.17,0,0,1,.6-2.35,9.66,9.66,0,0,1,1.89-2.94,14.22,14.22,0,0,1,3.89-2.95,1.3,1.3,0,0,1,.64-.18,1.34,1.34,0,0,1,1.16.71,1.27,1.27,0,0,1,.18.62,1.41,1.41,0,0,1-.71,1.18,10.93,10.93,0,0,0-4,3.4,6.34,6.34,0,0,0-1,2.78l0,.51c0,1.87.89,2.8,2.65,2.8a5.85,5.85,0,0,0,1.2-.13,12.2,12.2,0,0,0,5.15-2.87,16.12,16.12,0,0,0,4-5.11,15.21,15.21,0,0,0,1.56-6.56,6.77,6.77,0,0,0-.45-2.62c-.62-1.63-2.26-2.43-5-2.43a14.08,14.08,0,0,0-4.78.94,19.54,19.54,0,0,0-5.34,3.11,27.71,27.71,0,0,0-5.27,5.74,20.87,20.87,0,0,0-4,11.76,15.8,15.8,0,0,0,.58,4.22c.93,3,2.31,4.91,4.13,5.83a13.66,13.66,0,0,0,5.27,1.09A17.4,17.4,0,0,0,85,57.7a34.29,34.29,0,0,0,8.78-7.58,1.42,1.42,0,0,1,1-.46,1.29,1.29,0,0,1,.84.31,1.33,1.33,0,0,1,.47,1,1.39,1.39,0,0,1-.34.87,37.23,37.23,0,0,1-9.69,8.31A19.78,19.78,0,0,1,76.3,63,16.08,16.08,0,0,1,70,61.66Z"/><path class="cls-1" d="M93.11,61a7.17,7.17,0,0,1-.91-3.8,15.53,15.53,0,0,1,.53-3.85,20.47,20.47,0,0,1,1.52-4,17,17,0,0,1,2.4-3.58,11.19,11.19,0,0,1,3.18-2.6,7.73,7.73,0,0,1,3.82-1,3.9,3.9,0,0,1,2.25.56,4.27,4.27,0,0,1,1.2,1.2,5.63,5.63,0,0,1,.57,1.4c.65-1.16,1.12-2,1.43-2.49a1.35,1.35,0,0,1,1.13-.67,1.32,1.32,0,0,1,.69.2,1.4,1.4,0,0,1,.65,1.13,1.32,1.32,0,0,1-.2.69,69.94,69.94,0,0,0-4.27,8.34,17.86,17.86,0,0,0-1.83,6.36,2.17,2.17,0,0,0,.2,1l0,0c.08.16.33.25.71.25A3.46,3.46,0,0,0,108.54,59a15.2,15.2,0,0,0,2.14-2.76,19.61,19.61,0,0,0,1.55-3,1.41,1.41,0,0,1,1.23-.82,1.38,1.38,0,0,1,.51.11,1.35,1.35,0,0,1,.82,1.22,1.46,1.46,0,0,1-.09.54c-.09.17-.27.57-.58,1.2a22.41,22.41,0,0,1-1.2,2.18,18.3,18.3,0,0,1-1.75,2.4,10.8,10.8,0,0,1-2.27,2,4.94,4.94,0,0,1-2.69.8,3.34,3.34,0,0,1-3-1.63,5.1,5.1,0,0,1-.47-1.73c-1.93,2.24-4,3.38-6.22,3.38A3.84,3.84,0,0,1,93.11,61Zm7.23-2.89A20.94,20.94,0,0,0,104,52.26a13.5,13.5,0,0,0,1.22-5.09,3.6,3.6,0,0,0-.4-1.85,1.26,1.26,0,0,0-1.2-.55A5.64,5.64,0,0,0,100.16,46a12.07,12.07,0,0,0-2.8,3.15,18.3,18.3,0,0,0-1.85,4,13.72,13.72,0,0,0-.66,4,4.76,4.76,0,0,0,.51,2.4,1.17,1.17,0,0,0,1.11.6A5.47,5.47,0,0,0,100.34,58.08Z"/><path class="cls-1" d="M122,62.35a4,4,0,0,1-2.45-3.69,8.48,8.48,0,0,1,.42-2.47c.29-.86.61-1.66.94-2.47s.73-1.8,1-2.69a7.78,7.78,0,0,0,.47-2.57,4.52,4.52,0,0,0-.2-1.34,2.8,2.8,0,0,0-1-1.29,13,13,0,0,0-1.6-1l-.69-.4c-.84,2.4-2.31,5.78-4.4,10.18a1.36,1.36,0,0,1-1.18.76,1.37,1.37,0,0,1-.58-.14A1.32,1.32,0,0,1,112,54a1.42,1.42,0,0,1,.13-.58q3-6.44,4.63-10.93a3.86,3.86,0,0,1-.58-2.07,7,7,0,0,1,1.29-3.67,1.32,1.32,0,0,1,1.11-.62,1.79,1.79,0,0,1,1.53.84,2.05,2.05,0,0,1,.34,1.31,15.52,15.52,0,0,1-.67,3.49c.36.25.76.49,1.18.74A13.2,13.2,0,0,1,123.13,44a5.17,5.17,0,0,1,1.55,2.35,6.77,6.77,0,0,1,.31,2.12,10.52,10.52,0,0,1-.51,3.22c-.35,1-.73,2.07-1.15,3a11.74,11.74,0,0,0-1.18,3.84,1.41,1.41,0,0,0,.24.85,2.56,2.56,0,0,0,.74.53.81.81,0,0,0,.4.09A4,4,0,0,0,126,58.62a17.84,17.84,0,0,0,3.65-5.43,1.35,1.35,0,0,1,1.24-.82,1.16,1.16,0,0,1,.49.09,1.35,1.35,0,0,1,.82,1.22,3.86,3.86,0,0,1-.49,1.38l-.08.2a19.9,19.9,0,0,1-2.7,4.09,12.27,12.27,0,0,1-2.6,2.42,4.84,4.84,0,0,1-2.78.94A3.57,3.57,0,0,1,122,62.35Z"/><path class="cls-1" d="M139.25,62.35a3.94,3.94,0,0,1-2.45-3.69,8.48,8.48,0,0,1,.42-2.47c.29-.86.6-1.66.94-2.47s.73-1.8,1-2.69a7.78,7.78,0,0,0,.47-2.57,4.52,4.52,0,0,0-.2-1.34,2.8,2.8,0,0,0-1-1.29,13.85,13.85,0,0,0-1.6-1l-.69-.4c-.85,2.4-2.31,5.78-4.4,10.18a1.36,1.36,0,0,1-1.18.76,1.37,1.37,0,0,1-.58-.14,1.32,1.32,0,0,1-.75-1.2,1.42,1.42,0,0,1,.13-.58q3-6.44,4.62-10.93a3.86,3.86,0,0,1-.58-2.07,7.05,7.05,0,0,1,1.29-3.67,1.35,1.35,0,0,1,1.12-.62,1.79,1.79,0,0,1,1.53.84,2.12,2.12,0,0,1,.33,1.31,15.35,15.35,0,0,1-.66,3.49c.35.25.75.49,1.17.74A12.79,12.79,0,0,1,140.42,44,5.1,5.1,0,0,1,142,46.34a7.07,7.07,0,0,1,.31,2.12,10.83,10.83,0,0,1-.51,3.22c-.36,1-.73,2.07-1.16,3a11.91,11.91,0,0,0-1.17,3.84,1.34,1.34,0,0,0,.24.85,2.5,2.5,0,0,0,.73.53.86.86,0,0,0,.4.09,4,4,0,0,0,2.43-1.42,17.65,17.65,0,0,0,3.64-5.43,1.37,1.37,0,0,1,1.25-.82,1.16,1.16,0,0,1,.49.09,1.37,1.37,0,0,1,.82,1.22,4.09,4.09,0,0,1-.49,1.38l-.09.2a19.44,19.44,0,0,1-2.69,4.09,12.52,12.52,0,0,1-2.6,2.42,4.84,4.84,0,0,1-2.78.94A3.57,3.57,0,0,1,139.25,62.35Z"/><path class="cls-1" d="M152.43,62.82a5.55,5.55,0,0,1-5.31-3.51,8.91,8.91,0,0,1-.56-3.23A16.22,16.22,0,0,1,148,49.7a17.41,17.41,0,0,1,3.49-5.42,7.34,7.34,0,0,1,5.07-2.45,5.48,5.48,0,0,1,2,.38,3.48,3.48,0,0,1,1.73,1.47,4.37,4.37,0,0,1,.6,2.33,7.27,7.27,0,0,1-.42,2.36,10.93,10.93,0,0,1-1.93,3.47,10.38,10.38,0,0,1-3.23,2.55,8.79,8.79,0,0,1-4.2,1,9.4,9.4,0,0,1-1.8-.16c0,.29,0,.58,0,.87q0,4.06,3.38,4.09a10.19,10.19,0,0,0,5.31-1.91,12.86,12.86,0,0,0,4.56-5.11,1.4,1.4,0,0,1,1.22-.78,1.21,1.21,0,0,1,.56.13,1.36,1.36,0,0,1,.77,1.2,1.27,1.27,0,0,1-.13.56,15.13,15.13,0,0,1-5.65,6.29,12.77,12.77,0,0,1-6.64,2.27ZM154.3,51.9a8.42,8.42,0,0,0,2.33-2A6.52,6.52,0,0,0,158.17,46a2,2,0,0,0-.16-.84c-.2-.47-.69-.71-1.49-.71a4.57,4.57,0,0,0-3.2,1.66,15.59,15.59,0,0,0-3.58,6.47,6.75,6.75,0,0,0,1.31.11A6.23,6.23,0,0,0,154.3,51.9Z"/><path class="cls-1" d="M162.28,61.11a5.93,5.93,0,0,1-.8-3.18,10.76,10.76,0,0,1,1.09-4.76c2.2-4.71,4.13-8.72,5.82-12s3.14-5.94,4.38-8,2.29-3.71,3.16-4.87a20,20,0,0,1,2.13-2.51,4.32,4.32,0,0,1,1.36-.89,3,3,0,0,1,.82-.16,1.29,1.29,0,0,1,.94.4,1.25,1.25,0,0,1,.4.94,1.24,1.24,0,0,1-.36.91,1.34,1.34,0,0,1-.89.42c-.42.11-1.22,1-2.44,2.67a93.31,93.31,0,0,0-5,8.34Q169.72,44.2,165,54.28a9.12,9.12,0,0,0-.87,3.65,3.46,3.46,0,0,0,.4,1.75,1,1,0,0,0,.94.49c1.44,0,3-.93,4.82-2.82a22,22,0,0,0,3.27-4.29,1.38,1.38,0,0,1,1.16-.67,1.49,1.49,0,0,1,.66.18,1.3,1.3,0,0,1,.49,1.8,13.29,13.29,0,0,1-.77,1.22c-.41.63-.94,1.34-1.58,2.14a20.71,20.71,0,0,1-2.25,2.38A13,13,0,0,1,168.53,62a6.57,6.57,0,0,1-3.07.78A3.62,3.62,0,0,1,162.28,61.11Z"/><path class="cls-1" d="M179.11,62.82a5.55,5.55,0,0,1-5.31-3.51,8.91,8.91,0,0,1-.56-3.23,16.22,16.22,0,0,1,1.4-6.38,17.41,17.41,0,0,1,3.49-5.42,7.34,7.34,0,0,1,5.07-2.45,5.48,5.48,0,0,1,2,.38,3.52,3.52,0,0,1,1.73,1.47,4.37,4.37,0,0,1,.6,2.33,7.27,7.27,0,0,1-.42,2.36,10.93,10.93,0,0,1-1.93,3.47,10.38,10.38,0,0,1-3.23,2.55,8.82,8.82,0,0,1-4.2,1,9.4,9.4,0,0,1-1.8-.16c0,.29,0,.58,0,.87,0,2.71,1.13,4.07,3.37,4.09a10.19,10.19,0,0,0,5.32-1.91,12.86,12.86,0,0,0,4.56-5.11,1.4,1.4,0,0,1,1.22-.78,1.21,1.21,0,0,1,.56.13,1.36,1.36,0,0,1,.77,1.2,1.27,1.27,0,0,1-.13.56,15.13,15.13,0,0,1-5.65,6.29,12.77,12.77,0,0,1-6.65,2.27ZM181,51.9a8.42,8.42,0,0,0,2.33-2A6.52,6.52,0,0,0,184.85,46a2,2,0,0,0-.16-.84c-.2-.47-.69-.71-1.49-.71a4.57,4.57,0,0,0-3.2,1.66,15.59,15.59,0,0,0-3.58,6.47,6.75,6.75,0,0,0,1.31.11A6.23,6.23,0,0,0,181,51.9Z"/><path class="cls-1" d="M188.85,61.2a5.88,5.88,0,0,1-.8-3.21,10.75,10.75,0,0,1,1.09-4.75c2.84-6.12,5.27-11,7.27-14.77l-.83,0a7,7,0,0,0-1.53.18,2.09,2.09,0,0,1-.36,0,1.33,1.33,0,0,1-1.26-1,1.26,1.26,0,0,1-.05-.33,1.35,1.35,0,0,1,1-1.29,9.2,9.2,0,0,1,2.2-.27,15,15,0,0,1,2.23.16q5.79-10.44,8.33-11a3.1,3.1,0,0,1,.69-.11,1.25,1.25,0,0,1,.94.4,1.22,1.22,0,0,1,.4.93,1.24,1.24,0,0,1-.36.91,1.42,1.42,0,0,1-.91.43c-.38.08-1.07.82-2.09,2.17a67.71,67.71,0,0,0-4.11,6.61l.53,0a7.4,7.4,0,0,0,1.67-.2,1.87,1.87,0,0,1,.35,0,1.24,1.24,0,0,1,.78.26,1.22,1.22,0,0,1,.53,1,1.39,1.39,0,0,1-.26.8,1.37,1.37,0,0,1-.74.49,9.52,9.52,0,0,1-2.38.29,17,17,0,0,1-1.89-.12q-3.17,5.78-7.73,15.57a9.2,9.2,0,0,0-.85,3.67c0,1.49.45,2.22,1.34,2.22,1.42,0,3-1,4.84-2.87a22.39,22.39,0,0,0,3.25-4.25,1.33,1.33,0,0,1,2.31,1.32c-.13.2-.38.62-.8,1.22a21.25,21.25,0,0,1-1.58,2.13,19.6,19.6,0,0,1-2.22,2.38,12.77,12.77,0,0,1-2.74,1.94,6.52,6.52,0,0,1-3.06.77A3.6,3.6,0,0,1,188.85,61.2Z"/><path class="cls-4" d="M26.57,69.61a64.4,64.4,0,0,1-6.52-2.72c-2.24-1.06-4.89-2.4-8-4A7.55,7.55,0,0,1,6.45,66.2H6.29a4,4,0,0,1-2-.57,4.45,4.45,0,0,1-1.49-1.56A3.77,3.77,0,0,1,2.93,60a3.9,3.9,0,0,1,1.65-1.47,5,5,0,0,1,2.07-.44,7.33,7.33,0,0,1,3.09.71c.46.2,1,.44,1.53.73a51.75,51.75,0,0,0,4.07-9.31,8.49,8.49,0,0,1-4.4-2.32A1.35,1.35,0,0,1,11,46a1.34,1.34,0,0,1,.89-.34,1.37,1.37,0,0,1,1,.43,6.47,6.47,0,0,0,3.33,1.55l.44-1.29.63-1.93c1.2-3.56,2.15-6.32,2.87-8.23Q25.23,23,30.28,21.32A5.34,5.34,0,0,1,32,21a5.27,5.27,0,0,1,2.57.72c1.69,1,2.54,2.82,2.54,5.51a21.63,21.63,0,0,1-.91,5.89c-.6,2.11-1.27,4.14-2,6a19,19,0,0,1-3.87,6.38,16.06,16.06,0,0,1-8.65,4.76,18.94,18.94,0,0,1-3.05.26h-.6a57.4,57.4,0,0,1-4.42,10.14l1.18.6q2.73,1.44,5.93,3C22.88,65.31,25,66.2,27,67a15.85,15.85,0,0,0,5.18,1.11,4.25,4.25,0,0,0,1.6-.27A1.91,1.91,0,0,0,35,66.54a1.36,1.36,0,0,1,1.27-.89,1.23,1.23,0,0,1,.42.07A1.35,1.35,0,0,1,37.53,67a1.2,1.2,0,0,1-.07.42,4.59,4.59,0,0,1-2.69,2.87,7,7,0,0,1-2.53.43A17.56,17.56,0,0,1,26.57,69.61ZM9.69,61.69c-.29-.15-.55-.29-.82-.4l-.24-.11a4.73,4.73,0,0,0-2-.47,2.11,2.11,0,0,0-.85.16,1.24,1.24,0,0,0-.64.51,1.29,1.29,0,0,0-.22.73,1.22,1.22,0,0,0,.2.65,1.55,1.55,0,0,0,.53.58,1.3,1.3,0,0,0,.69.22A4.93,4.93,0,0,0,9.69,61.69Zm11.5-14a13.19,13.19,0,0,0,3.4-1.13q4.74-2.2,7.14-8.32c1.82-4.84,2.71-8.51,2.71-11,0-1.78-.38-2.85-1.16-3.2A2.45,2.45,0,0,0,32,23.65a2.14,2.14,0,0,0-.85.16c-1.44.44-3.11,2.31-5,5.64a84.85,84.85,0,0,0-6.07,15c-.38,1.14-.76,2.27-1.16,3.43A13.47,13.47,0,0,0,21.19,47.66Z"/><path class="cls-4" d="M38.75,61.31a5.53,5.53,0,0,1-5.31-3.51,8.9,8.9,0,0,1-.56-3.22,16.18,16.18,0,0,1,1.4-6.38,17.71,17.71,0,0,1,3.49-5.43,7.38,7.38,0,0,1,5.07-2.45,5.66,5.66,0,0,1,2,.38,3.5,3.5,0,0,1,1.74,1.47,4.42,4.42,0,0,1,.6,2.33,7.21,7.21,0,0,1-.43,2.36,10.39,10.39,0,0,1-5.15,6,9,9,0,0,1-4.21,1,10.4,10.4,0,0,1-1.8-.15c0,.29,0,.58,0,.87,0,2.71,1.13,4.06,3.38,4.09a10.28,10.28,0,0,0,5.31-1.91,12.82,12.82,0,0,0,4.56-5.12A1.4,1.4,0,0,1,50,50.86a1.22,1.22,0,0,1,.56.14,1.37,1.37,0,0,1,.78,1.2,1.21,1.21,0,0,1-.14.55,15.26,15.26,0,0,1-5.64,6.3,12.81,12.81,0,0,1-6.65,2.26ZM40.62,50.4a8.3,8.3,0,0,0,2.33-2,6.43,6.43,0,0,0,1.54-3.82,2.11,2.11,0,0,0-.16-.85c-.2-.46-.69-.71-1.49-.71a4.61,4.61,0,0,0-3.2,1.67,15.64,15.64,0,0,0-3.58,6.47,6.75,6.75,0,0,0,1.31.11A6.28,6.28,0,0,0,40.62,50.4Z"/><path class="cls-4" d="M72.21,60.16c-2.58-1.27-4.44-3.78-5.62-7.54a18.17,18.17,0,0,1-.67-4.94A21.35,21.35,0,0,1,67.05,41a25.73,25.73,0,0,1,3.34-6.56,29.94,29.94,0,0,1,5.71-6.23,22.05,22.05,0,0,1,6.05-3.58,16.12,16.12,0,0,1,5.71-1.15,10.23,10.23,0,0,1,4.76,1.07,5.45,5.45,0,0,1,2.63,2.75A9.75,9.75,0,0,1,96,31.14a15.74,15.74,0,0,1-.53,4.07,20.19,20.19,0,0,1-1.29,3.65,18.67,18.67,0,0,1-4.69,6,15.07,15.07,0,0,1-6.23,3.41,8.39,8.39,0,0,1-1.75.2,5.85,5.85,0,0,1-3.71-1.25,4.2,4.2,0,0,1-1.2-1.8A6.86,6.86,0,0,1,76.19,43l0-.73a8.64,8.64,0,0,1,.61-2.36A9.57,9.57,0,0,1,78.7,37a14.25,14.25,0,0,1,3.9-3,1.41,1.41,0,0,1,.64-.18,1.36,1.36,0,0,1,1.16.71,1.27,1.27,0,0,1,.17.63,1.42,1.42,0,0,1-.71,1.18,11,11,0,0,0-4,3.4,6.22,6.22,0,0,0-1,2.78l0,.51c0,1.86.89,2.8,2.64,2.8a6.46,6.46,0,0,0,1.2-.13,12.28,12.28,0,0,0,5.16-2.87,16.31,16.31,0,0,0,4-5.12,15.21,15.21,0,0,0,1.56-6.56,7,7,0,0,0-.45-2.62c-.62-1.62-2.27-2.42-5-2.42a14.38,14.38,0,0,0-4.78.93,19.9,19.9,0,0,0-5.33,3.11,27.7,27.7,0,0,0-5.27,5.74,20.89,20.89,0,0,0-4,11.76,16.22,16.22,0,0,0,.57,4.23c.94,3,2.32,4.91,4.14,5.82a13.66,13.66,0,0,0,5.27,1.09,17.48,17.48,0,0,0,8.76-2.6,34.66,34.66,0,0,0,8.78-7.58,1.43,1.43,0,0,1,1-.47,1.32,1.32,0,0,1,.85.31,1.33,1.33,0,0,1,.47,1,1.45,1.45,0,0,1-.34.87,37,37,0,0,1-9.69,8.31,19.83,19.83,0,0,1-9.83,2.83A16.34,16.34,0,0,1,72.21,60.16Z"/><path class="cls-4" d="M95.38,59.47a7.2,7.2,0,0,1-.91-3.8A15.53,15.53,0,0,1,95,51.82a21.16,21.16,0,0,1,1.51-4,17.78,17.78,0,0,1,2.4-3.58,11.65,11.65,0,0,1,3.18-2.6,7.91,7.91,0,0,1,3.83-1,3.87,3.87,0,0,1,2.24.56,4.26,4.26,0,0,1,1.2,1.2,5.29,5.29,0,0,1,.58,1.4c.65-1.16,1.11-2,1.43-2.49a1.36,1.36,0,0,1,1.13-.67,1.34,1.34,0,0,1,.69.2,1.4,1.4,0,0,1,.64,1.14,1.28,1.28,0,0,1-.2.69A70.55,70.55,0,0,0,109.36,51a18.06,18.06,0,0,0-1.82,6.36,2.21,2.21,0,0,0,.2,1l0,0c.09.15.34.24.71.24a3.46,3.46,0,0,0,2.34-1.18,14.65,14.65,0,0,0,2.13-2.75,19.75,19.75,0,0,0,1.56-3,1.4,1.4,0,0,1,1.22-.83,1.5,1.5,0,0,1,.51.11,1.36,1.36,0,0,1,.83,1.23,1.64,1.64,0,0,1-.09.53c-.09.18-.27.58-.58,1.2a21.3,21.3,0,0,1-1.2,2.18,17.52,17.52,0,0,1-1.76,2.4,10.47,10.47,0,0,1-2.26,2,5,5,0,0,1-2.7.8,3.33,3.33,0,0,1-3-1.62,4.93,4.93,0,0,1-.47-1.74q-2.89,3.38-6.22,3.38A3.84,3.84,0,0,1,95.38,59.47Zm7.23-2.89a21,21,0,0,0,3.69-5.83,13.42,13.42,0,0,0,1.22-5.09,3.54,3.54,0,0,0-.4-1.84,1.26,1.26,0,0,0-1.2-.56,5.6,5.6,0,0,0-3.49,1.22,12.12,12.12,0,0,0-2.8,3.16,18.09,18.09,0,0,0-1.85,4,13.65,13.65,0,0,0-.67,4,4.75,4.75,0,0,0,.52,2.4,1.17,1.17,0,0,0,1.11.6A5.51,5.51,0,0,0,102.61,56.58Z"/><path class="cls-4" d="M124.22,60.85a4,4,0,0,1-2.45-3.69,8.37,8.37,0,0,1,.42-2.47c.29-.87.6-1.67.94-2.47s.73-1.8,1-2.69a7.88,7.88,0,0,0,.47-2.58,4.46,4.46,0,0,0-.2-1.33,2.75,2.75,0,0,0-1-1.29,13.86,13.86,0,0,0-1.6-1l-.69-.4c-.84,2.4-2.31,5.78-4.4,10.18a1.31,1.31,0,0,1-1.76.63,1.32,1.32,0,0,1-.75-1.2,1.42,1.42,0,0,1,.13-.58q3-6.44,4.62-10.94a3.83,3.83,0,0,1-.57-2.07,7,7,0,0,1,1.28-3.67,1.35,1.35,0,0,1,1.12-.62,1.77,1.77,0,0,1,1.53.85,2.1,2.1,0,0,1,.33,1.31,15.35,15.35,0,0,1-.66,3.49c.35.24.75.49,1.18.73a13.13,13.13,0,0,1,2.17,1.49A5.08,5.08,0,0,1,127,44.84a7,7,0,0,1,.31,2.11,10.78,10.78,0,0,1-.51,3.22c-.36,1-.73,2.07-1.16,3a11.88,11.88,0,0,0-1.17,3.85,1.33,1.33,0,0,0,.24.84,2.33,2.33,0,0,0,.73.53.86.86,0,0,0,.4.09,4,4,0,0,0,2.43-1.42,17.72,17.72,0,0,0,3.64-5.42,1.36,1.36,0,0,1,1.25-.83,1.33,1.33,0,0,1,.49.09,1.37,1.37,0,0,1,.82,1.23,3.9,3.9,0,0,1-.49,1.37l-.09.2a19.19,19.19,0,0,1-2.69,4.09,12.59,12.59,0,0,1-2.6,2.43,4.9,4.9,0,0,1-2.78.93A3.7,3.7,0,0,1,124.22,60.85Z"/><path class="cls-4" d="M141.51,60.85a4,4,0,0,1-2.44-3.69,8.06,8.06,0,0,1,.42-2.47c.29-.87.6-1.67.93-2.47s.74-1.8,1-2.69a7.86,7.86,0,0,0,.46-2.58,4.16,4.16,0,0,0-.2-1.33,2.72,2.72,0,0,0-1-1.29,13.86,13.86,0,0,0-1.6-1l-.69-.4c-.85,2.4-2.31,5.78-4.4,10.18a1.31,1.31,0,0,1-1.76.63,1.33,1.33,0,0,1-.76-1.2,1.45,1.45,0,0,1,.14-.58c2-4.29,3.55-7.94,4.62-10.94a3.84,3.84,0,0,1-.58-2.07A7.05,7.05,0,0,1,137,35.23a1.33,1.33,0,0,1,1.11-.62,1.78,1.78,0,0,1,1.54.85,2.1,2.1,0,0,1,.33,1.31,15,15,0,0,1-.67,3.49c.36.24.76.49,1.18.73a12.79,12.79,0,0,1,2.18,1.49,5.24,5.24,0,0,1,1.56,2.36,7,7,0,0,1,.31,2.11,10.78,10.78,0,0,1-.51,3.22c-.36,1-.74,2.07-1.16,3a11.71,11.71,0,0,0-1.18,3.85,1.33,1.33,0,0,0,.25.84,2.33,2.33,0,0,0,.73.53.86.86,0,0,0,.4.09,4,4,0,0,0,2.43-1.42,17.72,17.72,0,0,0,3.64-5.42,1.35,1.35,0,0,1,1.25-.83,1.29,1.29,0,0,1,1.31,1.32,4.13,4.13,0,0,1-.49,1.37l-.09.2a20,20,0,0,1-2.69,4.09,12.85,12.85,0,0,1-2.6,2.43,4.92,4.92,0,0,1-2.78.93A3.78,3.78,0,0,1,141.51,60.85Z"/><path class="cls-4" d="M154.7,61.31a5.56,5.56,0,0,1-5.32-3.51,9.11,9.11,0,0,1-.55-3.22,16,16,0,0,1,1.4-6.38,17.35,17.35,0,0,1,3.49-5.43,7.38,7.38,0,0,1,5.07-2.45,5.7,5.7,0,0,1,2,.38,3.52,3.52,0,0,1,1.73,1.47,4.42,4.42,0,0,1,.6,2.33,7.18,7.18,0,0,1-.42,2.36,10.67,10.67,0,0,1-1.94,3.47,10.39,10.39,0,0,1-3.22,2.56,9,9,0,0,1-4.2,1,10.25,10.25,0,0,1-1.8-.15c0,.29-.05.58-.05.87,0,2.71,1.14,4.06,3.38,4.09a10.28,10.28,0,0,0,5.32-1.91,12.72,12.72,0,0,0,4.55-5.12,1.42,1.42,0,0,1,1.23-.78,1.15,1.15,0,0,1,.55.14,1.37,1.37,0,0,1,.78,1.2,1.2,1.2,0,0,1-.13.55,15.35,15.35,0,0,1-5.65,6.3,12.75,12.75,0,0,1-6.65,2.26Zm1.87-10.91a8.45,8.45,0,0,0,2.33-2,6.47,6.47,0,0,0,1.53-3.82,2.11,2.11,0,0,0-.15-.85c-.2-.46-.69-.71-1.49-.71a4.59,4.59,0,0,0-3.2,1.67A15.53,15.53,0,0,0,152,51.11a6.68,6.68,0,0,0,1.31.11A6.33,6.33,0,0,0,156.57,50.4Z"/><path class="cls-4" d="M164.55,59.6a5.8,5.8,0,0,1-.8-3.18,10.83,10.83,0,0,1,1.09-4.76C167,47,169,43,170.66,39.68s3.14-5.94,4.38-8a56.87,56.87,0,0,1,3.16-4.86,19.39,19.39,0,0,1,2.13-2.52,4.21,4.21,0,0,1,1.36-.89,2.8,2.8,0,0,1,.82-.15,1.21,1.21,0,0,1,.93.4,1.18,1.18,0,0,1,.4.93,1.24,1.24,0,0,1-.35.91,1.37,1.37,0,0,1-.89.43c-.42.11-1.22,1-2.45,2.66a93.8,93.8,0,0,0-5,8.34c-2.11,3.87-4.76,9.16-7.89,15.88a9.08,9.08,0,0,0-.87,3.64,3.53,3.53,0,0,0,.4,1.76,1,1,0,0,0,.94.49c1.44,0,3-.94,4.82-2.83a21.71,21.71,0,0,0,3.27-4.29,1.39,1.39,0,0,1,1.15-.66,1.48,1.48,0,0,1,.67.17,1.36,1.36,0,0,1,.67,1.16,1.34,1.34,0,0,1-.18.64,11.77,11.77,0,0,1-.78,1.23,24.91,24.91,0,0,1-1.58,2.13,20.6,20.6,0,0,1-2.24,2.38,12.72,12.72,0,0,1-2.74,1.93,6.42,6.42,0,0,1-3.06.78A3.62,3.62,0,0,1,164.55,59.6Z"/><path class="cls-4" d="M181.38,61.31a5.56,5.56,0,0,1-5.32-3.51,9.11,9.11,0,0,1-.55-3.22,16,16,0,0,1,1.4-6.38,17.35,17.35,0,0,1,3.49-5.43,7.38,7.38,0,0,1,5.07-2.45,5.75,5.75,0,0,1,2,.38,3.52,3.52,0,0,1,1.73,1.47,4.42,4.42,0,0,1,.6,2.33,7.18,7.18,0,0,1-.42,2.36,10.67,10.67,0,0,1-1.94,3.47,10.39,10.39,0,0,1-3.22,2.56,9,9,0,0,1-4.2,1,10.25,10.25,0,0,1-1.8-.15c0,.29,0,.58,0,.87,0,2.71,1.14,4.06,3.38,4.09a10.28,10.28,0,0,0,5.32-1.91,12.72,12.72,0,0,0,4.55-5.12,1.42,1.42,0,0,1,1.23-.78,1.18,1.18,0,0,1,.55.14,1.37,1.37,0,0,1,.78,1.2,1.2,1.2,0,0,1-.13.55,15.35,15.35,0,0,1-5.65,6.3,12.75,12.75,0,0,1-6.65,2.26Zm1.86-10.91a8.35,8.35,0,0,0,2.34-2,6.47,6.47,0,0,0,1.53-3.82,2.11,2.11,0,0,0-.15-.85c-.2-.46-.69-.71-1.49-.71a4.59,4.59,0,0,0-3.2,1.67,15.53,15.53,0,0,0-3.58,6.47,6.68,6.68,0,0,0,1.31.11A6.27,6.27,0,0,0,183.24,50.4Z"/><path class="cls-4" d="M191.12,59.69a5.82,5.82,0,0,1-.81-3.2,10.9,10.9,0,0,1,1.09-4.76q4.28-9.16,7.27-14.76l-.82,0a7,7,0,0,0-1.53.18,2.23,2.23,0,0,1-.36,0,1.36,1.36,0,0,1-1.27-1,1.86,1.86,0,0,1,0-.34,1.35,1.35,0,0,1,1-1.29,9.72,9.72,0,0,1,2.2-.26,14.78,14.78,0,0,1,2.22.15q5.8-10.44,8.34-11a3.83,3.83,0,0,1,.69-.11,1.25,1.25,0,0,1,.93.4,1.22,1.22,0,0,1,.4.94,1.27,1.27,0,0,1-.35.91,1.43,1.43,0,0,1-.91.42c-.38.09-1.07.82-2.09,2.18a68.16,68.16,0,0,0-4.12,6.6l.54,0a6.73,6.73,0,0,0,1.66-.2,2.09,2.09,0,0,1,.36,0,1.27,1.27,0,0,1,.78.27,1.23,1.23,0,0,1,.53,1,1.31,1.31,0,0,1-.27.8,1.26,1.26,0,0,1-.73.49,9.57,9.57,0,0,1-2.38.29,16.83,16.83,0,0,1-1.89-.11q-3.16,5.78-7.73,15.56a9.27,9.27,0,0,0-.85,3.67c0,1.49.45,2.22,1.33,2.22q2.15,0,4.85-2.86a23,23,0,0,0,3.25-4.25,1.36,1.36,0,0,1,1.15-.67,1.49,1.49,0,0,1,.67.18,1.41,1.41,0,0,1,.65,1.16,1.32,1.32,0,0,1-.16.64c-.13.2-.38.62-.8,1.22a25.81,25.81,0,0,1-3.8,4.52,12.72,12.72,0,0,1-2.74,1.93,6.57,6.57,0,0,1-3.07.78A3.6,3.6,0,0,1,191.12,59.69Z"/><path d="M136,72.62H131v4.16h5.54l-.11.71h-6.2V67.57h6.08v.71H131v3.63H136Z"/><path d="M138.06,70.4c1.15,3.25,1.94,5.46,2.21,6.37h0c.15-.53,1-2.64,2.32-6.37h.75l-2.68,7.09h-.85l-2.52-7.09Z"/><path d="M144.91,74c0,1.83.93,3,2.29,3a2,2,0,0,0,2-1.34H150a2.72,2.72,0,0,1-2.8,2c-2.15,0-3-1.86-3-3.66,0-2,1-3.77,3.08-3.77a2.94,2.94,0,0,1,2.88,3.22,5.43,5.43,0,0,1,0,.58Zm4.49-.62c0-1.4-.78-2.51-2.17-2.51s-2.13,1-2.28,2.51Z"/><path d="M151.86,72.19c0-.62,0-1.22,0-1.79h.69c0,.23,0,1.15,0,1.35a2.31,2.31,0,0,1,2.35-1.52c1.26,0,2.38.71,2.38,2.67v4.59h-.7V73c0-1.26-.53-2.08-1.76-2.08-1.69,0-2.27,1.4-2.27,2.95v3.61h-.71Z"/><path d="M158.52,70.4h1.32V68.19h.71V70.4h1.68v.67h-1.68v4.61c0,.79.17,1.24.85,1.24a2.64,2.64,0,0,0,.73-.08v.62a2.47,2.47,0,0,1-.88.13c-.9,0-1.41-.45-1.41-1.59V71.07h-1.32Z"/><path d="M163.92,75.54a1.87,1.87,0,0,0,2,1.47c1.26,0,1.77-.58,1.77-1.38s-.34-1.2-1.93-1.58c-1.82-.44-2.28-1-2.28-1.93s.74-1.89,2.34-1.89a2.26,2.26,0,0,1,2.48,2h-.71a1.66,1.66,0,0,0-1.8-1.33c-1.23,0-1.59.61-1.59,1.17s.35,1,1.75,1.32c2,.48,2.49,1.13,2.49,2.2,0,1.29-1,2.08-2.53,2.08a2.47,2.47,0,0,1-2.73-2.12Z"/></g></g></svg>