<?xml version="1.0" encoding="utf-8"?>
<!-- Generator: Adobe Illustrator 24.0.0, SVG Export Plug-In . SVG Version: 6.00 Build 0)  -->
<svg version="1.1" id="Layer_1" xmlns="http://www.w3.org/2000/svg" xmlns:xlink="http://www.w3.org/1999/xlink" x="0px" y="0px"
	 viewBox="0 0 200 158.5" style="enable-background:new 0 0 200 158.5;" xml:space="preserve">
<style type="text/css">
	.st0{fill:#1241B5;}
</style>
<g>
	<path class="st0" d="M0.5,158V0.6c3.4,0.8,7,2.9,10.7,6.1c1.3,1.1,2.5,2.3,3.8,3.5c2.9,2.8,6,5.7,9.6,7.7c4.1,2.3,8.9,3.5,14.2,3.5
		c7.6,0,16.2-2.3,27.1-7.3l2.6-1.2c10-4.6,20.4-9.4,30.9-9.4c2.3,0,4.6,0.2,6.8,0.7c6.2,1.4,11.9,4.8,17.4,8.1c4.9,3,10,6,15.5,7.7
		c3.4,1,7,1.5,10.8,1.5c10.6,0,21.6-4,30.9-7.9l2.8-1.2c5.2-2.2,10.6-4.5,16-6.2V158H0.5z"/>
	<path d="M1,1.3c3.1,0.9,6.5,2.9,9.9,5.9c1.3,1.1,2.5,2.3,3.8,3.5c3,2.8,6,5.7,9.7,7.8c4.2,2.4,9,3.6,14.4,3.6
		c7.7,0,16.4-2.3,27.3-7.3c0.9-0.4,1.8-0.8,2.6-1.2c10-4.6,20.3-9.3,30.6-9.3c2.3,0,4.5,0.2,6.7,0.7c6.2,1.4,11.8,4.7,17.2,8
		c4.9,3,10,6.1,15.7,7.7c3.4,1,7.1,1.5,10.9,1.5c10.7,0,21.7-4,31.1-7.9c0.9-0.4,1.9-0.8,2.9-1.2c5-2.1,10.1-4.3,15.3-6v150.6H1V1.3
		 M0,0v158.5h200V5.5c-6.6,2.1-13.1,5-19.5,7.7c-9.8,4.1-20.3,7.9-30.7,7.9c-3.6,0-7.1-0.4-10.6-1.5c-11.7-3.5-21-13.1-32.9-15.7
		c-2.3-0.5-4.6-0.7-6.9-0.7c-11.5,0-22.9,5.7-33.7,10.7c-8.4,3.8-17.9,7.2-26.9,7.2c-4.9,0-9.6-1-13.9-3.4c-5-2.8-8.9-7.3-13.3-11.1
		C8.2,3.5,4.3,0.8,0,0L0,0z"/>
</g>
</svg>
