<?xml version="1.0" encoding="utf-8"?>
<!-- Generator: Adobe Illustrator 24.0.2, SVG Export Plug-In . SVG Version: 6.00 Build 0)  -->
<svg version="1.1" id="Layer_1" xmlns="http://www.w3.org/2000/svg" xmlns:xlink="http://www.w3.org/1999/xlink" x="0px" y="0px"
	 viewBox="0 0 360 640" style="enable-background:new 0 0 360 640;" xml:space="preserve">
<style type="text/css">
	.st0{fill:#1D1D1B;}
	.st1{fill:#E8521D;}
</style>
<g>
	<path class="st0" d="M211.15,352.31c-1.42,1.47-2.94,2.86-4.31,4.38c-0.08,0.06-0.17,0.12-0.25,0.19h0
		c-0.64,0.47-1.27,0.93-1.91,1.4c0,0,0,0,0,0c-0.88,0.65-1.76,1.29-2.65,1.93c-0.06,0.05-0.15,0.09-0.23,0.1
		c-0.54,0.11-1.06,0.24-1.49,0.61c-0.38,0.33-0.76,0.65-1.15,0.96c-0.17,0.14-0.35,0.26-0.53,0.37c-0.01,0.01-0.01,0.01-0.02,0.01
		c-0.05,0.04-0.1,0.07-0.16,0.1c-0.06,0.04-0.13,0.07-0.2,0.1c-0.01,0-0.01,0.01-0.02,0.01c-0.14,0.07-0.29,0.13-0.41,0.21
		c-0.1,0.07-0.2,0.14-0.3,0.21c0,0-0.01,0-0.01,0c-0.17,0.12-0.34,0.24-0.53,0.32c0,0,0,0,0,0c-0.22,0.09-0.46,0.14-0.76,0.06
		c0.05-0.07,0.09-0.14,0.14-0.2c-0.93,0.32-1.81,0.69-2.69,1.08c-0.79,0.35-1.55,0.8-2.47,0.8c-0.11,0-0.21,0.13-0.32,0.19
		c0.02,0.05,0.04,0.09,0.06,0.14c0.68-0.2,1.36-0.4,2.04-0.6c-0.04,0.13-0.11,0.2-0.19,0.24c-0.91,0.48-1.85,0.84-2.9,0.87
		c-1.31,0.03-2.6,0.24-3.86,0.58c-0.74,0.2-1.5,0.34-2.25,0.52c-0.2,0.05-0.38,0.13-0.58,0.19c0.01,0.03,0.02,0.06,0.03,0.09
		c0.39-0.07,0.78-0.14,1.18-0.22c-1,0.46-2.62,0.78-3.3,0.67c0.22-0.07,0.41-0.14,0.6-0.2c0-0.02-0.01-0.04-0.01-0.06
		c-0.42,0.05-0.84,0.1-1.26,0.15c-0.01-0.04-0.01-0.07-0.02-0.11c0.26-0.07,0.53-0.14,0.82-0.21c-0.06-0.01-0.1-0.03-0.13-0.03
		c-0.94-0.04-1.86,0.26-2.8,0.15c-0.24-0.03-0.46,0-0.71-0.05c-0.58-0.11-1.19-0.04-1.83-0.04v0.27c-1.43,0.39-2.68-0.52-4.09-0.56
		c0.06,0.07,0.1,0.11,0.16,0.18c-1.07,0.02-2.01-0.51-3.04-0.4c0.12,0.06,0.24,0.12,0.39,0.19c-0.49-0.05-0.93-0.07-1.36-0.12
		c-0.4-0.04-0.77,0.08-1.21-0.2c-0.41-0.27-1.03-0.35-1.6-0.18c-0.43,0.12-0.81-0.06-1.19-0.26h0.65c0-0.02,0-0.03,0-0.05
		c-0.32-0.06-0.63-0.12-0.96-0.19c0.04-0.05,0.06-0.09,0.08-0.1c-0.88-0.26-1.78-0.52-2.67-0.79c-0.07-0.02-0.16-0.05-0.24-0.04
		c-0.19,0.02-0.38,0.09-0.57,0.09c-0.71-0.01-1.21-0.49-1.79-0.78c0.58-0.14,1.01,0.49,1.69,0.34c-0.13-0.07-0.17-0.11-0.23-0.13
		c-0.75-0.24-1.52-0.44-2.25-0.72c-0.7-0.26-1.5-0.2-2.09-0.78c-0.22-0.21-0.63-0.24-0.95-0.35c0.01-0.03,0.01-0.06,0.02-0.09
		c0.13-0.02,0.27-0.04,0.48-0.07c-0.26-0.1-0.47-0.17-0.66-0.26c-0.41-0.2-0.89-0.36-1.22-0.66c-0.58-0.54-1.28-0.86-1.99-1.19
		c-1.67-0.78-3.24-1.73-4.66-2.91c-0.6-0.5-1.2-1-1.84-1.45c-0.5-0.34-0.9-0.73-1.2-1.25c-0.09-0.17-0.27-0.29-0.41-0.43
		c-0.02,0.02-0.05,0.04-0.07,0.06c0.05,0.14,0.09,0.28,0.14,0.41c-0.04,0.03-0.07,0.05-0.1,0.08c-0.46-0.41-0.92-0.81-1.38-1.23
		c-0.05-0.05-0.1-0.15-0.08-0.19c0.22-0.31-0.06-0.39-0.23-0.53c-0.72-0.64-1.44-1.27-2.15-1.91c-0.03-0.03-0.03-0.08-0.07-0.19
		c0.13,0.12,0.2,0.19,0.27,0.25c0.01-0.01,0.03-0.02,0.04-0.04c-0.1-0.15-0.19-0.31-0.29-0.47c0.01-0.01,0.03-0.02,0.04-0.04
		c0.09,0.06,0.18,0.13,0.32,0.23c-0.68-0.79-1.29-1.53-1.94-2.24c-0.29-0.32-0.65-0.56-0.97-0.85c-0.08-0.07-0.16-0.18-0.17-0.27
		c-0.04-0.52-0.39-0.84-0.78-1.12c-0.52-0.36-0.93-0.83-1.22-1.38c-0.17-0.33-0.22-0.73-0.44-1.01c-0.62-0.76-0.92-1.68-1.42-2.5
		c-0.11-0.18-0.14-0.42-0.29-0.57c-0.68-0.66-0.95-1.55-1.41-2.34c-0.01-0.02,0.01-0.06,0.04-0.21c0.29,0.49,0.53,0.91,0.78,1.32
		c0.03-0.01,0.06-0.02,0.1-0.04c-0.1-0.31-0.14-0.66-0.32-0.92c-0.44-0.63-0.6-1.4-1.1-2.01c-0.19-0.23-0.17-0.61-0.26-0.92
		c-0.08-0.3-0.17-0.59-0.26-0.89h-2.38c0.02,0.07,0.05,0.14,0.07,0.21c0.12,0.39,0.26,0.78,0.42,1.15c0.52,1.17,1.06,2.32,1.59,3.48
		c0,0.01,0.02,0.02,0.04,0.04c0.02-0.07,0.04-0.13,0.1-0.3c0.18,0.36,0.33,0.62,0.45,0.91c0.58,1.46,1.09,2.96,2.08,4.23
		c0.66,0.85,1.32,1.71,1.98,2.56c0.04,0.05,0.06,0.1,0.09,0.15c0.25,0.47,0.44,0.99,0.77,1.42c0.52,0.7,1.14,1.33,1.71,1.99
		c0.29,0.33,0.59,0.65,0.85,0.99c0.13,0.19,0.14,0.46,0.29,0.63c0.8,0.88,1.64,1.72,2.43,2.61c0.64,0.73,1.58,1.11,2.24,1.84
		c1.08,1.2,2.42,2.11,3.9,2.82c0.1,0.05,0.18,0.15,0.25,0.24c0.08,0.09,0.14,0.21,0.24,0.29c0.2,0.16,0.42,0.29,0.63,0.45
		c1.67,1.3,3.49,2.37,5.41,3.29c0.58,0.28,1.16,0.58,1.75,0.84c1.38,0.61,2.73,1.27,4.15,1.78c0.75,0.27,1.61,0.25,2.42,0.37
		c0.27,0.04,0.54,0.09,0.82,0.15c0-0.02,0.01-0.04,0.01-0.05c-0.23-0.09-0.45-0.18-0.74-0.28c0.12-0.04,0.23-0.07,0.34-0.09h0
		c0.43-0.07,0.81,0.03,1.16,0.19c0.19,0.09,0.38,0.2,0.57,0.31c-0.19-0.05-0.38-0.09-0.58-0.14c0.06,0.14,0.16,0.24,0.27,0.27
		c1.05,0.32,2.09,0.73,3.17,0.91c1.99,0.35,4.01,0.6,6.03,0.82c2.44,0.27,4.9,0.28,7.35,0.13c0.5-0.03,0.99-0.09,1.56-0.14
		c-0.19-0.11-0.3-0.18-0.45-0.27c0.64-0.06,1.21-0.11,1.78-0.16c0.01,0.04,0.01,0.08,0.02,0.12c-0.2,0.05-0.41,0.09-0.68,0.16
		c0.98,0.11,1.73-0.6,2.65-0.45c-0.31,0.11-0.62,0.22-0.93,0.33c0.33-0.01,0.65-0.05,0.95-0.14c0.68-0.21,1.33-0.49,2.02-0.66
		c0.52-0.12,1.09-0.07,1.62-0.17c0.6-0.11,1.19-0.29,1.79-0.45c0,0,0,0,0.01,0c0.04-0.01,0.07-0.02,0.11-0.03c0-0.01,0-0.01,0-0.02
		c0-0.01,0-0.03-0.01-0.04c-0.17-0.01-0.33-0.02-0.5-0.02c2.15-0.84,4.37-1.41,6.48-2.33c2.13-0.92,4.06-2.15,6.05-3.3
		c-0.05-0.06-0.09-0.1-0.13-0.15c0.24-0.18,0.56-0.55,0.7-0.49c0.36,0.15,0.59-0.04,0.81-0.17c1.17-0.71,2.45-1.27,3.43-2.26
		c0.41-0.42,1.04-0.66,1.22-1.3c0-0.03,0.1-0.07,0.13-0.05c0.36,0.18,0.53-0.1,0.73-0.29c0.09-0.08,0.17-0.16,0.26-0.24
		c0.6-0.56,1.19-1.13,1.79-1.69c0.34-0.32,0.68-0.64,1.01-0.96c0.03-0.03,0.06-0.05,0.08-0.08c0.53-0.51,1.05-1.02,1.54-1.55H211.15
		z M201.65,278.63c1.04,0.54,2.09,1.08,3.19,1.65c-0.41-0.3-0.68-0.65-1.13-0.86c-0.78-0.35-1.52-0.79-2.24-1.23
		c-0.63-0.39-1.21-0.87-1.83-1.27c-0.43-0.27-0.9-0.47-1.36-0.69c-0.03-0.01-0.08,0.01-0.17,0.03c0.16,0.14,0.29,0.24,0.45,0.37
		c-0.08,0.01-0.11,0.03-0.13,0.02c-0.89-0.33-1.77-0.65-2.65-0.98c-0.02-0.01-0.07-0.02-0.07-0.03c0.04-0.37-0.3-0.22-0.46-0.3
		c-0.38-0.21-0.77-0.4-1.16-0.6c0.01-0.03,0.03-0.06,0.05-0.09c0.06-0.02,0.13-0.04,0.2-0.06c-1.61-0.68-3.19-1.37-4.92-1.65
		c-1.77-0.28-3.52-0.66-5.28-0.99c-0.42-0.08-0.85-0.11-1.27-0.2c-0.45-0.09-0.9-0.23-1.36-0.35c0,0.03-0.01,0.06-0.02,0.09
		c0.13,0.05,0.27,0.09,0.4,0.14c0,0.01-0.01,0.03-0.01,0.05c-0.63-0.1-1.26-0.2-1.88-0.31c0-0.01,0-0.02,0-0.04
		c0.3,0.01,0.6,0.03,0.9,0.05c0-0.03,0-0.07,0-0.1c-0.51-0.03-1.02-0.08-1.54-0.09c-0.33,0-0.67,0.08-1.01,0.07
		c-0.74-0.03-1.47-0.06-2.22-0.19c-0.92-0.16-1.89-0.05-2.84-0.04c-0.23,0-0.46,0.05-0.7,0.05c-0.42-0.01-0.84-0.09-1.25-0.06
		c-1.1,0.1-2.22,0.19-3.3,0.4c-0.75,0.15-1.6,0-2.23,0.6c-0.03,0.03-0.09,0.01-0.14,0.02c-1.09,0.29-2.18,0.58-3.26,0.88
		c-0.09,0.02-0.24,0.09-0.24,0.12c0.06,0.26-0.17,0.23-0.29,0.28c-0.25,0.09-0.51,0.17-0.77,0.23c-1.33,0.36-2.67,0.68-3.98,1.07
		c-2.24,0.67-4.08,2.11-6.2,3.03c-0.7,0.3-1.38,0.65-2.07,0.96c-0.4,0.18-0.82,0.32-1.29,0.51c0.15,0.09,0.21,0.13,0.26,0.17
		c-0.12,0.09-0.23,0.17-0.37,0.27c0.11,0.06,0.18,0.09,0.28,0.14c-0.21,0.18-0.38,0.35-0.58,0.48c-0.69,0.43-1.42,0.8-2.08,1.26
		c-0.48,0.34-0.89,0.8-1.32,1.21c-0.73,0.71-1.45,1.43-2.18,2.14c-0.19,0.19-0.33,0.45-0.68,0.44c-0.07,0-0.17,0.12-0.23,0.2
		c-0.12,0.18-0.24,0.35-0.35,0.53l0,0c-0.04,0.06-0.08,0.13-0.11,0.2c-0.21,0.41-0.57,0.63-0.99,0.86l0,0
		c-0.01,0.01-0.03,0.01-0.04,0.02c0.02-0.14,0.04-0.23,0.06-0.34c-0.38,0.44-0.72,0.9-1.05,1.36l0,0c-0.46,0.63-0.91,1.25-1.44,1.82
		c-0.33,0.35-0.55,0.8-0.86,1.17c-0.36,0.43-0.78,0.8-1.12,1.24c-1.53,1.97-2.77,4.1-3.94,6.27c0,0,0,0,0,0
		c-0.06,0.11-0.13,0.23-0.19,0.35c0,0,0,0,0,0.01c-0.03,0.05-0.05,0.09-0.07,0.14c-0.11,0.2-0.22,0.4-0.34,0.6c0,0,0,0,0,0.01
		c-0.21,0.37-0.41,0.75-0.48,1.21c0,0,0,0,0,0c0,0.02,0,0.04-0.01,0.05c-0.1,0.61-0.71,1.11-0.78,1.79c0,0.06-0.09,0.15-0.14,0.16
		c-0.1,0-0.16,0.04-0.2,0.09l0,0c-0.06,0.07-0.07,0.17-0.1,0.25c-0.01,0.02-0.01,0.05-0.02,0.06c-0.04,0.09-0.07,0.17-0.1,0.26
		c-0.06,0.15-0.11,0.3-0.17,0.46c-0.04,0.09-0.07,0.19-0.11,0.29c-0.02,0.06-0.04,0.11-0.06,0.17c-0.25,0.75-0.49,1.49-0.72,2.2
		c-0.01-0.02-0.04-0.06-0.07-0.11c-0.06,0.28-0.12,0.51-0.18,0.75c-0.01,0-0.03,0-0.05,0v-0.35c-0.11,0.33-0.2,0.66-0.24,0.98
		c-0.04,0.38-0.12,0.8,0.14,1.13c0.01,0.01,0.02,0.03,0.04,0.05c0.17,0.19,0.14,0.32,0.06,0.51c-0.09,0.23-0.17,0.46-0.21,0.7h0.37
		c0.02-0.19,0.05-0.39,0.08-0.59c0.02,0,0.04-0.01,0.06-0.01c0.02,0.06,0.05,0.12,0.07,0.19c0.11-0.22,0.18-0.37,0.27-0.56
		c0.06,0.1,0.09,0.2,0.11,0.29c0,0,0,0,0,0c0.06,0.26,0,0.47-0.13,0.68h0.53c0.03-0.04,0.06-0.07,0.11-0.1
		c0.04-0.03,0.08-0.09,0.09-0.14c0.07-0.3,0.11-0.6,0.19-0.89c0.19-0.66,0.45-1.3,0.6-1.97c0.13-0.62,0.15-1.26,0.23-1.88
		c0-0.06,0.01-0.12,0.02-0.19c0.18-1.27,0.5-2.52,0.94-3.62c0,0,0.01,0,0.02,0c0.19,0.06,0.36,0.11,0.44,0.14
		c-0.33,1-0.67,2.01-1,3.02c0.04,0.02,0.08,0.04,0.13,0.05c0.05-0.07,0.13-0.14,0.14-0.22c0.26-1.08,0.55-2.15,1.25-3.06
		c0.05-0.06,0.04-0.17,0.05-0.25c0.01-0.14-0.05-0.31,0-0.44c0.16-0.37,0.32-0.75,0.48-1.13c0.2-0.47,0.4-0.94,0.61-1.41
		c0.06,0.06,0.09,0.1,0.11,0.13c0.01,0.01,0.02,0.03,0.03,0.03c0.02-0.05,0.04-0.1,0.06-0.16c0.13-0.37,0.22-0.78,0.43-1.11
		c0.2-0.32,0.43-0.62,0.66-0.93c0,0,0,0,0,0c0.26-0.33,0.51-0.66,0.75-1c0.08-0.12,0.17-0.24,0.26-0.37
		c0.27-0.39,0.54-0.77,0.8-1.17c0,0,0.01-0.01,0.01-0.02c0.13-0.19,0.26-0.37,0.39-0.56c0,0,0-0.01,0.01-0.01
		c0.6-0.88,1.2-1.75,1.79-2.63c0.11-0.16,0.19-0.33,0.32-0.53c0.03,0.09,0.06,0.16,0.07,0.23c0.02,0.05,0.04,0.11,0.06,0.17
		c0.09-0.19,0.18-0.38,0.26-0.56c0,0,0-0.01,0-0.01c0.46-0.99,0.91-1.96,1.37-2.94c0.29,0.16,0.64,0.24,0.74,0.44
		c0.05,0.09,0.03,0.23-0.01,0.37c-0.04,0.13-0.09,0.28-0.12,0.41c0.42-0.43,0.83-0.86,1.29-1.33h-0.63
		c-0.01-0.03-0.02-0.06-0.02-0.09c0.71-0.46,1.43-0.92,2.12-1.36c-0.1-0.51,0.19-0.8,0.51-1.1c0.12,0.14,0.21,0.26,0.32,0.39
		c0.36-0.46,0.7-0.89,1.04-1.33c0.01,0.03,0.03,0.06,0.04,0.1c0.19-0.03,0.43-0.02,0.6-0.07c0.06-0.02,0.11-0.04,0.15-0.08
		c0.2-0.18,0.43-0.34,0.65-0.49c0.17-0.11,0.33-0.22,0.5-0.34c0,0,0,0,0,0c0.26-0.19,0.5-0.39,0.7-0.65
		c0.45-0.57,0.98-1.08,1.51-1.58c0,0,0.01-0.01,0.01-0.01c0.38-0.37,0.82-0.67,1.3-1.06c-0.05,0.52,0.06,0.64,0.43,0.51
		c0.23-0.08,0.45-0.23,0.62-0.4c0.56-0.61,1.06-1.26,1.66-1.83c0.08-0.08,0.16-0.15,0.24-0.22c0,0,0,0,0,0
		c0.4-0.36,0.85-0.66,1.31-0.94c0.46-0.27,1-0.42,1.5-0.63c0.02,0,0.05,0.01,0.08,0.02c-0.11,0.09-0.21,0.18-0.32,0.28h0
		c-1.13,0.97-2.26,1.92-3.39,2.88c0.02,0.03,0.04,0.06,0.06,0.09c0.04-0.02,0.08-0.03,0.13-0.05c0.22-0.08,0.45-0.17,0.68-0.26
		c0.19-0.08,0.38-0.15,0.6-0.24c-0.18,0.15-0.27,0.24-0.38,0.34c0.05,0.01,0.07,0.02,0.09,0.01c0.01,0,0.02-0.01,0.03-0.01
		c0.08-0.04,0.16-0.08,0.24-0.1c0.45-0.17,0.89-0.37,1.3-0.6c0.49-0.26,0.95-0.56,1.41-0.88c0.3-0.21,0.64-0.37,0.96-0.56
		c-0.02-0.03-0.04-0.07-0.06-0.1c-0.89,0.47-1.78,0.94-2.71,1.44c-0.08,0.05-0.17,0.09-0.25,0.14c0.01-0.02,0.02-0.03,0.03-0.05
		c0,0,0,0,0,0c0.56-0.88,3.11-2.34,3.78-2.17c-0.11,0.19-0.22,0.37-0.34,0.57c0.6-0.25,1.15-0.49,1.71-0.73
		c0.01,0.02,0.02,0.04,0.03,0.06c-0.04,0.04-0.09,0.09-0.14,0.13c0,0,0,0,0,0c-0.01,0.01-0.02,0.02-0.03,0.03
		c0.52-0.18,1.02-0.41,1.53-0.6c0.24-0.09,0.47-0.17,0.71-0.23c0.42-0.11,0.86-0.17,1.31-0.21h0c0.35-0.04,0.7-0.06,1.06-0.11
		c-0.19-0.09-0.33-0.14-0.45-0.21c-0.02-0.01-0.05-0.03-0.07-0.05c-0.3-0.2-0.5-0.46-0.46-0.83c0-0.01,0-0.03,0-0.04
		c0.02-0.13,0.15-0.33,0.26-0.34c0.51-0.08,1.04-0.12,1.58-0.18c-0.01,0.03-0.02,0.06-0.02,0.09c-0.04,0.15-0.07,0.28-0.11,0.41
		c0.26-0.06,0.27-0.06,0.25-0.45v-0.05h1.8c0.01,0.03,0.02,0.06,0.03,0.09c-0.03,0.03-0.06,0.05-0.09,0.08
		c-0.24,0.19-0.48,0.39-0.71,0.59c0.02,0.03,0.04,0.06,0.06,0.09c0,0.01,0.01,0.01,0.01,0.02c0.09-0.04,0.19-0.08,0.28-0.11
		c0.22-0.06,0.44-0.15,0.66-0.18c0.27-0.03,0.58,0.05,0.83-0.03c0.63-0.18,1.23-0.47,1.91-0.45c0.26,0.01,0.52-0.01,0.77-0.04
		c0.1-0.01,0.2-0.05,0.3-0.1c0.22-0.13,0.42-0.3,0.65-0.38c0.26-0.09,0.53-0.16,0.8-0.21c0,0,0.01,0,0.01,0
		c0.42-0.08,0.86-0.1,1.33-0.05h0c0.02,0,0.05,0,0.07,0c1.62,0.19,3.27,0.17,4.91,0.27c0.51,0.03,1.02,0.17,1.52,0.27
		c0.18,0.04,0.34,0.11,0.51,0.17c-0.01-0.04-0.03-0.08-0.04-0.11c0.06-0.06,0.11-0.15,0.17-0.17c0.31-0.07,0.63-0.17,0.94-0.17
		c0.66,0,1.31-0.05,1.97-0.02h0c0.74,0.03,1.47,0.14,2.21,0.47c0.2,0.09,0.41,0.16,0.64,0.22c0.66,0.16,1.39,0.19,2.08,0.24
		c0.98,0.09,1.92,0.28,2.81,0.68c0.19,0.09,0.36,0.25,0.55,0.38c-0.14,0.12-0.28,0.19-0.41,0.22h0c-0.15,0.03-0.3,0.01-0.46-0.05
		c-0.18-0.08-0.36-0.15-0.54-0.22c-0.25-0.09-0.49-0.18-0.74-0.25c-0.35-0.1-0.72-0.16-1.09-0.23c0,0-0.01,0-0.01,0
		c-0.06-0.01-0.13-0.02-0.19-0.04c0.08,0.12,0.19,0.15,0.29,0.19c1.44,0.45,2.87,0.9,4.27,1.45c0.03,0.01,0.06,0.03,0.1,0.04
		c0.81,0.32,1.6,0.66,2.37,1.06c0.22,0.11,0.47,0.17,0.72,0.22c0,0,0.01,0,0.01,0c0.09,0.02,0.17,0.04,0.26,0.06
		c0.01-0.03,0.02-0.06,0.03-0.09c-0.28-0.13-0.56-0.26-0.83-0.39c0.38,0.01,0.75,0.02,1.09,0.13c1.08,0.33,2.13,0.75,3.08,1.36
		c0.09,0.06,0.14,0.18,0.2,0.28c0.04,0.06,0.04,0.17,0.09,0.21c0.33,0.23,0.68,0.44,1.02,0.65c0.13,0.07,0.27,0.09,0.41,0.14
		c0.01-0.02,0.02-0.04,0.03-0.06c-0.17-0.15-0.34-0.31-0.51-0.47C201.61,278.69,201.63,278.66,201.65,278.63z M149.1,278.56
		c0.02,0.03,0.04,0.05,0.06,0.09c-0.31,0.21-0.62,0.42-0.93,0.62l-0.08-0.15C148.46,278.93,148.78,278.75,149.1,278.56z"/>
	<path class="st0" d="M208.05,283.37c-0.37-0.39-0.74-0.78-1.08-1.13c0.44,0.17,0.91,0.34,1.37,0.53c0.72,0.3,1.03,1,1.52,1.53
		c-0.55-0.49-1.11-0.98-1.71-1.51c0.11,0.35,0.22,0.63,0.27,0.91c0.05,0.3-0.11,0.4-0.39,0.27c-0.13-0.06-0.26-0.15-0.36-0.24
		c-0.56-0.54-1.13-1.04-1.89-1.35c-0.37-0.15-0.64-0.53-1-0.85c0.17,0.03,0.3,0.04,0.42,0.08c0.44,0.16,0.87,0.33,1.3,0.51
		c0.09,0.04,0.14,0.16,0.22,0.23c0.4,0.38,0.81,0.75,1.21,1.13C207.98,283.44,208.01,283.41,208.05,283.37z"/>
	<path class="st0" d="M212.22,286.48c-0.12-0.04-0.28-0.11-0.45-0.17c0.01,0.06,0.02,0.13,0.03,0.22c-0.52-0.28-1-0.58-1.29-1.09
		c0.02-0.03,0.04-0.06,0.06-0.09c0.21,0.1,0.42,0.19,0.71,0.33c-0.36-0.34-0.65-0.61-0.94-0.89
		C211.12,285.25,211.8,285.79,212.22,286.48z"/>
	<path class="st0" d="M223.43,305.84c0.43,1.39,0.86,2.78,1.29,4.17c-0.29-0.18-0.37-0.43-0.43-0.74c-0.19-0.84-0.48-1.65-0.72-2.48
		c-0.09-0.31-0.15-0.62-0.22-0.93C223.37,305.86,223.4,305.85,223.43,305.84z"/>
	<path class="st0" d="M130.96,337.17c-0.03,0-0.07,0-0.11,0.01c-0.16-0.24-0.34-0.48-0.49-0.74c-0.05-0.09-0.01-0.24-0.01-0.36
		c0-0.28-0.01-0.55-0.02-0.83c0-0.12-0.02-0.23,0-0.36c0-0.03,0.01-0.07,0.02-0.1c0.01,0.03,0.02,0.07,0.03,0.1
		C130.57,335.65,130.77,336.41,130.96,337.17z"/>
	<path class="st0" d="M183.97,273.21c-0.89,0-1.81,0-2.72,0c0-0.03,0-0.07,0-0.1c0.3,0,0.6,0,0.89,0c0-0.03,0.01-0.05,0.01-0.08
		c-0.16-0.04-0.31-0.08-0.43-0.11C182.49,272.87,183.63,273.01,183.97,273.21z"/>
	<path class="st0" d="M217.12,293.22c0.36,0.72,0.71,1.43,1.06,2.13c-0.02,0.01-0.04,0.02-0.06,0.03c-0.13-0.16-0.27-0.32-0.39-0.45
		c-0.02,0,0.02,0,0.15,0C217.48,294.41,217.07,293.91,217.12,293.22z"/>
	<path class="st0" d="M139.15,289.39c0.07-0.38,0.12-0.71,0.2-1.02c0.01-0.05,0.13-0.1,0.2-0.11c0.18-0.02,0.35-0.02,0.55-0.03
		C139.78,288.61,139.49,288.97,139.15,289.39z"/>
	<path class="st0" d="M149.09,281.05c0.47-0.6,1.07-0.84,1.67-1.05C150.14,280.19,149.96,281.04,149.09,281.05z"/>
	<path class="st0" d="M213.34,287.03c0.97,0.67,1.28,1.02,1.34,1.63C214.21,288.08,213.8,287.58,213.34,287.03z"/>
	<path class="st0" d="M214.26,288.92c-0.51-0.6-1.01-1.21-1.52-1.81c0.03-0.03,0.06-0.05,0.1-0.08c0.51,0.6,1.01,1.21,1.52,1.81
		C214.33,288.87,214.29,288.89,214.26,288.92z"/>
	<path class="st0" d="M213.44,288.64c0.38,0.4,0.76,0.81,1.14,1.21c-0.03,0.03-0.06,0.05-0.09,0.08
		C214.05,289.58,213.62,289.21,213.44,288.64z"/>
	<path class="st0" d="M203.91,280.34c-0.4-0.26-0.79-0.52-1.19-0.78c0.03-0.04,0.05-0.08,0.08-0.12c0.41,0.25,0.9,0.38,1.2,0.78
		C203.98,280.26,203.94,280.3,203.91,280.34z"/>
	<path class="st0" d="M181.48,367.12c0.84-0.15,1.68-0.3,2.51-0.45c0.01,0.04,0.01,0.08,0.02,0.11c-0.84,0.15-1.68,0.29-2.52,0.44
		C181.49,367.19,181.49,367.15,181.48,367.12z"/>
	<path class="st0" d="M221.98,300.3c-0.19-0.4-0.39-0.81-0.58-1.21c0.06-0.03,0.13-0.05,0.19-0.08c0.18,0.42,0.35,0.84,0.53,1.26
		C222.08,300.27,222.03,300.28,221.98,300.3z"/>
	<path class="st0" d="M222.46,302.17c-0.25-0.36-0.5-0.73-0.35-1.29c0.17,0.46,0.31,0.85,0.46,1.25
		C222.53,302.15,222.49,302.16,222.46,302.17z"/>
	<path class="st0" d="M196.3,275.43c-0.37-0.11-0.74-0.22-1.11-0.32c0.01-0.05,0.03-0.09,0.04-0.14c0.38,0.1,0.75,0.19,1.13,0.29
		C196.34,275.31,196.32,275.37,196.3,275.43z"/>
	<path class="st0" d="M185.17,273.06c-0.45-0.06-0.9-0.12-1.35-0.18c0.01-0.04,0.01-0.08,0.02-0.12c0.45,0.06,0.89,0.12,1.34,0.17
		C185.18,272.97,185.18,273.01,185.17,273.06z"/>
	<path class="st0" d="M219.1,295.06c-0.29-0.31-0.57-0.63-0.86-0.94c0.02-0.02,0.05-0.04,0.07-0.06c0.12,0.13,0.23,0.26,0.39,0.43
		c-0.01-0.13-0.02-0.22-0.03-0.3c0.02,0,0.04-0.01,0.05-0.01c0.14,0.29,0.27,0.58,0.41,0.86
		C219.12,295.04,219.11,295.05,219.1,295.06z"/>
	<path class="st0" d="M219.14,295.88c-0.47,0.05-0.58-0.07-0.61-0.66C218.76,295.46,218.92,295.65,219.14,295.88z"/>
	<path class="st0" d="M198.98,277.83c-0.38-0.21-0.77-0.41-1.15-0.62c0.01-0.02,0.03-0.05,0.04-0.07c0.39,0.2,0.78,0.4,1.16,0.6
		C199.01,277.77,198.99,277.8,198.98,277.83z"/>
	<path class="st0" d="M184.44,273.59c0.37,0.02,0.73,0.05,1.1,0.07c0,0.04-0.01,0.08-0.01,0.12c-0.37-0.03-0.73-0.06-1.1-0.09
		C184.44,273.66,184.44,273.63,184.44,273.59z"/>
	<path class="st0" d="M139.78,351c0.22,0.16,0.43,0.32,0.65,0.48c-0.03,0.04-0.07,0.09-0.1,0.13c-0.21-0.18-0.41-0.35-0.62-0.53
		C139.74,351.05,139.76,351.02,139.78,351z"/>
	<path class="st0" d="M148.14,279.12c0.32-0.19,0.64-0.37,0.95-0.56c0.02,0.03,0.04,0.06,0.05,0.09c-0.31,0.21-0.62,0.42-0.92,0.62
		C148.2,279.22,148.17,279.17,148.14,279.12z"/>
</g>
<g>
	<g>
		<path class="st0" d="M95.24,342.03c-2.11-0.73-4.29-1.65-6.51-2.71c-2.25-1.07-4.89-2.4-7.96-4c-1.58,2.07-3.47,3.18-5.65,3.31
			h-0.16c-0.67,0-1.33-0.2-1.98-0.58c-0.62-0.4-1.13-0.91-1.49-1.56c-0.38-0.64-0.56-1.29-0.56-1.96c0-0.73,0.22-1.47,0.67-2.13
			c0.44-0.69,1-1.18,1.65-1.47c0.64-0.29,1.33-0.44,2.07-0.44c1.04,0,2.07,0.24,3.09,0.71c0.47,0.2,0.98,0.44,1.53,0.73
			c1.49-2.58,2.85-5.69,4.07-9.32c-1.89-0.44-3.36-1.2-4.4-2.31c-0.22-0.27-0.33-0.56-0.33-0.89c0-0.36,0.13-0.69,0.42-0.98
			c0.27-0.22,0.58-0.33,0.89-0.33c0.36,0,0.69,0.13,0.98,0.42c0.67,0.69,1.78,1.22,3.33,1.56l0.44-1.29l0.62-1.93
			c1.2-3.56,2.16-6.31,2.87-8.23c3.38-8.83,6.76-13.78,10.12-14.9c0.58-0.2,1.16-0.31,1.73-0.31c0.87,0,1.73,0.24,2.58,0.71
			c1.69,0.98,2.53,2.82,2.53,5.51c0,1.82-0.31,3.78-0.91,5.89c-0.6,2.11-1.27,4.14-2,6.03c-1.07,2.71-2.36,4.85-3.87,6.38
			c-1.53,1.56-3.05,2.69-4.6,3.4c-1.56,0.71-2.89,1.18-4.05,1.36c-1.04,0.18-2.05,0.27-3.05,0.27h-0.6
			c-1.31,3.89-2.78,7.27-4.42,10.14l1.18,0.6c1.82,0.96,3.8,1.96,5.94,3c2.13,1.02,4.22,1.91,6.25,2.67
			c2.02,0.73,3.76,1.11,5.18,1.11c0.62,0,1.16-0.09,1.6-0.27c0.58-0.22,0.98-0.64,1.18-1.27c0.29-0.6,0.71-0.89,1.27-0.89
			c0.13,0,0.29,0.02,0.42,0.07c0.6,0.29,0.89,0.71,0.89,1.27c0,0.13-0.02,0.29-0.07,0.42c-0.49,1.38-1.38,2.33-2.69,2.87
			c-0.76,0.29-1.6,0.42-2.53,0.42C99.24,343.12,97.35,342.76,95.24,342.03z M78.36,334.12c-0.29-0.16-0.56-0.29-0.82-0.4l-0.24-0.11
			c-0.67-0.31-1.33-0.47-1.98-0.47c-0.31,0-0.6,0.04-0.84,0.16c-0.27,0.09-0.49,0.27-0.64,0.51s-0.22,0.49-0.22,0.73
			c0,0.2,0.07,0.42,0.2,0.64c0.11,0.24,0.31,0.42,0.53,0.58c0.24,0.16,0.47,0.22,0.69,0.22C76.23,335.89,77.34,335.27,78.36,334.12z
			 M89.86,320.09c0.98-0.16,2.09-0.53,3.4-1.13c3.16-1.47,5.54-4.25,7.14-8.32c1.82-4.85,2.71-8.52,2.71-10.98
			c0-1.78-0.38-2.85-1.16-3.2c-0.42-0.24-0.84-0.38-1.27-0.38c-0.29,0-0.56,0.04-0.84,0.16c-1.45,0.44-3.11,2.31-5,5.65
			c-1.89,3.31-3.91,8.34-6.07,15.03c-0.38,1.13-0.76,2.27-1.16,3.42C88.35,320.31,89.1,320.24,89.86,320.09z"/>
		<path class="st0" d="M107.42,333.74c-2.58-0.11-4.36-1.27-5.31-3.51c-0.38-0.98-0.56-2.07-0.56-3.22c0-2.07,0.47-4.2,1.4-6.38
			c0.93-2.2,2.11-4,3.49-5.42c1.67-1.62,3.36-2.45,5.07-2.45c0.67,0,1.33,0.13,1.98,0.38c0.76,0.31,1.33,0.8,1.73,1.47
			c0.4,0.64,0.6,1.45,0.6,2.33c0,0.73-0.13,1.51-0.42,2.36c-0.4,1.25-1.07,2.4-1.93,3.47c-0.89,1.04-1.96,1.91-3.22,2.56
			c-1.27,0.67-2.67,0.98-4.2,0.98c-0.58,0-1.18-0.04-1.8-0.16c-0.02,0.29-0.04,0.58-0.04,0.87c0,2.71,1.13,4.07,3.38,4.09
			c1.56,0,3.33-0.64,5.31-1.91c1.98-1.29,3.49-2.98,4.56-5.11c0.31-0.51,0.71-0.78,1.22-0.78c0.2,0,0.38,0.04,0.56,0.13
			c0.51,0.31,0.78,0.69,0.78,1.2c0,0.18-0.04,0.38-0.13,0.56c-1.33,2.69-3.22,4.78-5.65,6.29s-4.62,2.27-6.65,2.27H107.42z
			 M109.29,322.82c0.96-0.58,1.71-1.25,2.33-2.05c1.02-1.36,1.53-2.62,1.53-3.82c0-0.31-0.04-0.6-0.16-0.84
			c-0.2-0.47-0.69-0.71-1.49-0.71c-1.07,0-2.11,0.56-3.2,1.67c-1.67,1.78-2.85,3.94-3.58,6.47c0.47,0.09,0.89,0.11,1.31,0.11
			C107.27,323.64,108.36,323.38,109.29,322.82z"/>
		<path class="st0" d="M140.88,332.58c-2.58-1.27-4.45-3.78-5.62-7.54c-0.44-1.6-0.67-3.25-0.67-4.94c0-2.22,0.38-4.47,1.13-6.74
			s1.87-4.45,3.33-6.56c1.8-2.53,3.69-4.62,5.71-6.23c2-1.62,4.02-2.82,6.05-3.58c2.02-0.78,3.94-1.16,5.71-1.16
			s3.36,0.36,4.76,1.07c1.25,0.64,2.11,1.56,2.62,2.76c0.51,1.18,0.78,2.49,0.78,3.89c0,1.36-0.18,2.71-0.53,4.07
			c-0.36,1.36-0.78,2.58-1.29,3.65c-1.13,2.31-2.69,4.34-4.69,6.05c-2,1.73-4.07,2.87-6.23,3.4c-0.6,0.13-1.2,0.2-1.76,0.2
			c-1.42,0-2.67-0.42-3.71-1.25c-0.51-0.44-0.91-1.04-1.2-1.8s-0.42-1.58-0.42-2.47l0.02-0.73c0.04-0.64,0.24-1.42,0.6-2.36
			c0.36-0.93,0.98-1.91,1.89-2.93c0.91-1.04,2.2-2.02,3.89-2.96c0.22-0.11,0.42-0.18,0.64-0.18c0.47,0,0.87,0.24,1.16,0.71
			c0.11,0.2,0.18,0.4,0.18,0.62c0,0.47-0.24,0.87-0.71,1.18c-1.96,1.13-3.29,2.27-3.98,3.4c-0.67,1.13-1,2.05-1.02,2.78l-0.02,0.51
			c0,1.87,0.89,2.8,2.65,2.8c0.38,0,0.78-0.04,1.2-0.13c1.76-0.44,3.49-1.38,5.16-2.87c1.69-1.47,3-3.18,3.96-5.11
			c1.04-2.22,1.56-4.4,1.56-6.56c0-0.98-0.13-1.85-0.44-2.62c-0.62-1.62-2.27-2.42-4.96-2.42c-1.45,0-3.05,0.31-4.78,0.93
			c-1.76,0.64-3.54,1.69-5.34,3.11c-1.82,1.45-3.58,3.36-5.27,5.74c-2.67,3.94-4,7.87-4,11.76c0,1.45,0.2,2.85,0.58,4.22
			c0.93,2.96,2.31,4.91,4.14,5.83c1.71,0.71,3.47,1.09,5.27,1.09c2.85,0,5.76-0.87,8.76-2.6c2.98-1.71,5.91-4.25,8.78-7.58
			c0.31-0.31,0.64-0.47,1.02-0.47c0.29,0,0.58,0.09,0.84,0.31c0.31,0.29,0.47,0.62,0.47,1c0,0.29-0.11,0.58-0.33,0.87
			c-3.13,3.65-6.36,6.43-9.69,8.32c-3.33,1.89-6.6,2.82-9.83,2.82C145.06,333.89,142.93,333.45,140.88,332.58z"/>
		<path class="st0" d="M164.05,331.89c-0.6-0.98-0.91-2.25-0.91-3.8c0-1.2,0.18-2.49,0.53-3.85c0.36-1.38,0.84-2.71,1.51-4.05
			c0.67-1.31,1.47-2.51,2.4-3.58c0.93-1.09,2-1.96,3.18-2.6c1.18-0.64,2.45-0.98,3.82-0.98c0.96,0,1.69,0.18,2.25,0.56
			c0.53,0.38,0.93,0.78,1.2,1.2c0.24,0.42,0.44,0.89,0.58,1.4c0.64-1.16,1.11-2,1.42-2.49c0.31-0.44,0.69-0.67,1.13-0.67
			c0.24,0,0.47,0.07,0.69,0.2c0.42,0.31,0.64,0.69,0.64,1.13c0,0.24-0.07,0.47-0.2,0.69c-1.65,2.76-3.07,5.54-4.27,8.34
			c-1.22,2.82-1.82,4.94-1.82,6.36c0,0.44,0.07,0.78,0.2,1.02l0.02,0.02c0.09,0.16,0.33,0.24,0.71,0.24c0.76,0,1.53-0.4,2.33-1.18
			c0.78-0.78,1.49-1.71,2.13-2.76c0.67-1.07,1.18-2.07,1.56-3c0.31-0.53,0.71-0.82,1.22-0.82c0.18,0,0.33,0.04,0.51,0.11
			c0.56,0.29,0.82,0.71,0.82,1.22c0,0.18-0.02,0.36-0.09,0.53c-0.09,0.18-0.27,0.58-0.58,1.2c-0.29,0.62-0.69,1.36-1.2,2.18
			c-0.49,0.82-1.09,1.62-1.76,2.4c-0.69,0.8-1.45,1.45-2.27,1.98c-0.82,0.53-1.73,0.8-2.69,0.8c-1.36,0-2.38-0.53-3.05-1.62
			c-0.24-0.49-0.4-1.07-0.47-1.73c-1.93,2.25-4,3.38-6.23,3.38C165.98,333.74,164.87,333.11,164.05,331.89z M171.28,329
			c1.33-1.38,2.56-3.33,3.69-5.83c0.82-1.96,1.22-3.65,1.22-5.09c0-0.78-0.13-1.4-0.4-1.85c-0.22-0.38-0.62-0.56-1.2-0.56
			c-1.25,0-2.42,0.4-3.49,1.22c-1.07,0.82-2,1.89-2.8,3.16c-0.78,1.27-1.4,2.62-1.85,4.05c-0.44,1.45-0.67,2.76-0.67,3.98
			c0,1.02,0.18,1.82,0.51,2.4c0.22,0.4,0.6,0.6,1.11,0.6C168.68,331.09,169.96,330.4,171.28,329z"/>
		<path class="st0" d="M192.89,333.27c-1.62-0.82-2.45-2.05-2.45-3.69c0-0.8,0.16-1.62,0.42-2.47c0.29-0.87,0.6-1.67,0.93-2.47
			c0.38-0.91,0.73-1.8,1.02-2.69c0.31-0.89,0.47-1.76,0.47-2.58c0-0.47-0.07-0.91-0.2-1.33c-0.16-0.49-0.49-0.91-0.96-1.29
			c-0.47-0.36-1-0.71-1.6-1.04l-0.69-0.4c-0.84,2.4-2.31,5.78-4.4,10.18c-0.29,0.49-0.69,0.76-1.18,0.76c-0.2,0-0.38-0.04-0.58-0.13
			c-0.51-0.29-0.76-0.69-0.76-1.2c0-0.18,0.04-0.38,0.13-0.58c2.02-4.29,3.56-7.94,4.62-10.94c-0.4-0.64-0.58-1.33-0.58-2.07
			c0-1.09,0.42-2.31,1.29-3.67c0.31-0.42,0.67-0.62,1.11-0.62c0.64,0,1.16,0.29,1.53,0.84c0.22,0.29,0.33,0.71,0.33,1.31
			c0,0.71-0.22,1.87-0.67,3.49c0.36,0.24,0.76,0.49,1.18,0.73c0.73,0.4,1.47,0.89,2.18,1.49c0.71,0.6,1.22,1.38,1.56,2.36
			c0.22,0.71,0.31,1.4,0.31,2.11c0,1.09-0.18,2.16-0.51,3.22c-0.36,1.04-0.73,2.07-1.16,3.05c-0.78,1.8-1.18,3.09-1.18,3.85
			c0,0.36,0.09,0.64,0.24,0.84c0.18,0.2,0.42,0.38,0.73,0.53c0.13,0.07,0.27,0.09,0.4,0.09c0.64,0,1.45-0.47,2.42-1.42
			c1.4-1.36,2.62-3.18,3.65-5.42c0.29-0.56,0.71-0.82,1.25-0.82c0.18,0,0.33,0.02,0.49,0.09c0.56,0.31,0.82,0.71,0.82,1.22
			c0,0.24-0.16,0.69-0.49,1.38l-0.09,0.2c-0.67,1.38-1.56,2.73-2.69,4.09c-0.8,0.98-1.67,1.78-2.6,2.42
			c-0.91,0.62-1.85,0.93-2.78,0.93C193.93,333.63,193.42,333.52,192.89,333.27z"/>
		<path class="st0" d="M210.18,333.27c-1.62-0.82-2.45-2.05-2.45-3.69c0-0.8,0.16-1.62,0.42-2.47c0.29-0.87,0.6-1.67,0.93-2.47
			c0.38-0.91,0.73-1.8,1.02-2.69c0.31-0.89,0.47-1.76,0.47-2.58c0-0.47-0.07-0.91-0.2-1.33c-0.16-0.49-0.49-0.91-0.96-1.29
			c-0.47-0.36-1-0.71-1.6-1.04l-0.69-0.4c-0.84,2.4-2.31,5.78-4.4,10.18c-0.29,0.49-0.69,0.76-1.18,0.76c-0.2,0-0.38-0.04-0.58-0.13
			c-0.51-0.29-0.76-0.69-0.76-1.2c0-0.18,0.04-0.38,0.13-0.58c2.02-4.29,3.56-7.94,4.62-10.94c-0.4-0.64-0.58-1.33-0.58-2.07
			c0-1.09,0.42-2.31,1.29-3.67c0.31-0.42,0.67-0.62,1.11-0.62c0.64,0,1.16,0.29,1.53,0.84c0.22,0.29,0.33,0.71,0.33,1.31
			c0,0.71-0.22,1.87-0.67,3.49c0.36,0.24,0.76,0.49,1.18,0.73c0.73,0.4,1.47,0.89,2.18,1.49c0.71,0.6,1.22,1.38,1.56,2.36
			c0.22,0.71,0.31,1.4,0.31,2.11c0,1.09-0.18,2.16-0.51,3.22c-0.36,1.04-0.73,2.07-1.16,3.05c-0.78,1.8-1.18,3.09-1.18,3.85
			c0,0.36,0.09,0.64,0.24,0.84c0.18,0.2,0.42,0.38,0.73,0.53c0.13,0.07,0.27,0.09,0.4,0.09c0.64,0,1.45-0.47,2.42-1.42
			c1.4-1.36,2.62-3.18,3.65-5.42c0.29-0.56,0.71-0.82,1.25-0.82c0.18,0,0.33,0.02,0.49,0.09c0.56,0.31,0.82,0.71,0.82,1.22
			c0,0.24-0.16,0.69-0.49,1.38l-0.09,0.2c-0.67,1.38-1.56,2.73-2.69,4.09c-0.8,0.98-1.67,1.78-2.6,2.42
			c-0.91,0.62-1.85,0.93-2.78,0.93C211.23,333.63,210.72,333.52,210.18,333.27z"/>
		<path class="st0" d="M223.37,333.74c-2.58-0.11-4.36-1.27-5.31-3.51c-0.38-0.98-0.56-2.07-0.56-3.22c0-2.07,0.47-4.2,1.4-6.38
			c0.93-2.2,2.11-4,3.49-5.42c1.67-1.62,3.36-2.45,5.07-2.45c0.67,0,1.33,0.13,1.98,0.38c0.76,0.31,1.33,0.8,1.73,1.47
			c0.4,0.64,0.6,1.45,0.6,2.33c0,0.73-0.13,1.51-0.42,2.36c-0.4,1.25-1.07,2.4-1.93,3.47c-0.89,1.04-1.96,1.91-3.22,2.56
			c-1.27,0.67-2.67,0.98-4.2,0.98c-0.58,0-1.18-0.04-1.8-0.16c-0.02,0.29-0.04,0.58-0.04,0.87c0,2.71,1.13,4.07,3.38,4.09
			c1.56,0,3.33-0.64,5.31-1.91c1.98-1.29,3.49-2.98,4.56-5.11c0.31-0.51,0.71-0.78,1.22-0.78c0.2,0,0.38,0.04,0.56,0.13
			c0.51,0.31,0.78,0.69,0.78,1.2c0,0.18-0.04,0.38-0.13,0.56c-1.33,2.69-3.22,4.78-5.65,6.29s-4.62,2.27-6.65,2.27H223.37z
			 M225.24,322.82c0.96-0.58,1.71-1.25,2.33-2.05c1.02-1.36,1.53-2.62,1.53-3.82c0-0.31-0.04-0.6-0.16-0.84
			c-0.2-0.47-0.69-0.71-1.49-0.71c-1.07,0-2.11,0.56-3.2,1.67c-1.67,1.78-2.85,3.94-3.58,6.47c0.47,0.09,0.89,0.11,1.31,0.11
			C223.21,323.64,224.3,323.38,225.24,322.82z"/>
		<path class="st0" d="M233.22,332.03c-0.53-0.84-0.8-1.91-0.8-3.18c0-1.65,0.36-3.22,1.09-4.76c2.2-4.71,4.14-8.72,5.83-11.98
			c1.69-3.27,3.13-5.94,4.38-8.03c1.25-2.09,2.29-3.71,3.16-4.87c0.87-1.16,1.58-2,2.13-2.51c0.58-0.49,1.02-0.8,1.36-0.89
			c0.36-0.11,0.62-0.16,0.82-0.16c0.36,0,0.69,0.13,0.93,0.4c0.27,0.24,0.4,0.56,0.4,0.93c0,0.36-0.11,0.67-0.36,0.91
			c-0.24,0.24-0.53,0.4-0.89,0.42c-0.42,0.11-1.22,1-2.45,2.67c-1.2,1.69-2.87,4.45-5,8.34c-2.11,3.87-4.76,9.16-7.89,15.87
			c-0.58,1.31-0.87,2.53-0.87,3.65c0,0.71,0.13,1.31,0.4,1.76c0.18,0.33,0.49,0.49,0.93,0.49c1.45,0,3.05-0.93,4.82-2.82
			c1.36-1.42,2.45-2.85,3.27-4.29c0.31-0.44,0.71-0.67,1.16-0.67c0.22,0,0.44,0.07,0.67,0.18c0.44,0.31,0.67,0.69,0.67,1.16
			c0,0.22-0.07,0.44-0.18,0.64c-0.11,0.2-0.36,0.62-0.78,1.22c-0.4,0.62-0.93,1.33-1.58,2.13c-0.64,0.82-1.4,1.6-2.25,2.38
			c-0.84,0.78-1.76,1.42-2.73,1.93c-0.98,0.51-2,0.78-3.07,0.78C235.04,333.74,233.97,333.16,233.22,332.03z"/>
		<path class="st0" d="M250.05,333.74c-2.58-0.11-4.36-1.27-5.31-3.51c-0.38-0.98-0.56-2.07-0.56-3.22c0-2.07,0.47-4.2,1.4-6.38
			c0.93-2.2,2.11-4,3.49-5.42c1.67-1.62,3.36-2.45,5.07-2.45c0.67,0,1.33,0.13,1.98,0.38c0.76,0.31,1.33,0.8,1.73,1.47
			c0.4,0.64,0.6,1.45,0.6,2.33c0,0.73-0.13,1.51-0.42,2.36c-0.4,1.25-1.07,2.4-1.93,3.47c-0.89,1.04-1.96,1.91-3.22,2.56
			c-1.27,0.67-2.67,0.98-4.2,0.98c-0.58,0-1.18-0.04-1.8-0.16c-0.02,0.29-0.04,0.58-0.04,0.87c0,2.71,1.13,4.07,3.38,4.09
			c1.56,0,3.33-0.64,5.31-1.91c1.98-1.29,3.49-2.98,4.56-5.11c0.31-0.51,0.71-0.78,1.22-0.78c0.2,0,0.38,0.04,0.56,0.13
			c0.51,0.31,0.78,0.69,0.78,1.2c0,0.18-0.04,0.38-0.13,0.56c-1.33,2.69-3.22,4.78-5.65,6.29c-2.42,1.51-4.62,2.27-6.65,2.27H250.05
			z M251.92,322.82c0.96-0.58,1.71-1.25,2.33-2.05c1.02-1.36,1.53-2.62,1.53-3.82c0-0.31-0.04-0.6-0.16-0.84
			c-0.2-0.47-0.69-0.71-1.49-0.71c-1.07,0-2.11,0.56-3.2,1.67c-1.67,1.78-2.85,3.94-3.58,6.47c0.47,0.09,0.89,0.11,1.31,0.11
			C249.89,323.64,250.98,323.38,251.92,322.82z"/>
		<path class="st0" d="M259.79,332.11c-0.53-0.84-0.8-1.91-0.8-3.2c0-1.65,0.36-3.22,1.09-4.76c2.85-6.11,5.27-11.03,7.27-14.76
			l-0.82-0.04c-0.53,0-1.04,0.07-1.53,0.18c-0.11,0.02-0.24,0.04-0.36,0.04c-0.58,0-1-0.33-1.27-0.98
			c-0.02-0.11-0.04-0.22-0.04-0.33c0-0.29,0.09-0.56,0.27-0.8c0.18-0.24,0.42-0.4,0.71-0.49c0.73-0.18,1.47-0.27,2.2-0.27
			c0.76,0,1.49,0.04,2.22,0.16c3.87-6.96,6.65-10.65,8.34-11.05c0.29-0.07,0.51-0.11,0.69-0.11c0.36,0,0.69,0.13,0.93,0.4
			c0.27,0.24,0.4,0.56,0.4,0.93c0,0.36-0.11,0.67-0.36,0.91c-0.24,0.24-0.56,0.4-0.91,0.42c-0.38,0.09-1.07,0.82-2.09,2.18
			c-1.02,1.36-2.38,3.56-4.11,6.6l0.53,0.02c0.56,0,1.11-0.07,1.67-0.2c0.11-0.02,0.22-0.04,0.36-0.04c0.29,0,0.53,0.09,0.78,0.27
			c0.36,0.27,0.53,0.6,0.53,1.04c0,0.29-0.09,0.56-0.27,0.8c-0.18,0.24-0.42,0.4-0.73,0.49c-0.78,0.2-1.58,0.29-2.38,0.29
			c-0.64,0-1.27-0.04-1.89-0.11c-2.11,3.85-4.69,9.03-7.74,15.56c-0.58,1.33-0.84,2.56-0.84,3.67c0,1.49,0.44,2.22,1.33,2.22
			c1.42,0,3.05-0.96,4.85-2.87c1.36-1.45,2.45-2.85,3.25-4.25c0.31-0.44,0.69-0.67,1.16-0.67c0.22,0,0.44,0.07,0.67,0.18
			c0.42,0.31,0.64,0.69,0.64,1.16c0,0.22-0.04,0.44-0.16,0.64c-0.13,0.2-0.38,0.62-0.8,1.22c-0.4,0.62-0.91,1.33-1.58,2.13
			c-0.64,0.82-1.38,1.6-2.22,2.38c-0.84,0.78-1.76,1.42-2.73,1.93s-2,0.78-3.07,0.78C261.61,333.8,260.54,333.25,259.79,332.11z"/>
	</g>
	<g>
		<path class="st1" d="M97.51,340.53c-2.11-0.73-4.29-1.65-6.51-2.71c-2.25-1.07-4.89-2.4-7.96-4c-1.58,2.07-3.47,3.18-5.65,3.31
			h-0.16c-0.67,0-1.33-0.2-1.98-0.58c-0.62-0.4-1.13-0.91-1.49-1.56c-0.38-0.64-0.56-1.29-0.56-1.96c0-0.73,0.22-1.47,0.67-2.13
			c0.44-0.69,1-1.18,1.65-1.47c0.64-0.29,1.33-0.44,2.07-0.44c1.04,0,2.07,0.24,3.09,0.71c0.47,0.2,0.98,0.44,1.53,0.73
			c1.49-2.58,2.85-5.69,4.07-9.32c-1.89-0.44-3.36-1.2-4.4-2.31c-0.22-0.27-0.33-0.56-0.33-0.89c0-0.36,0.13-0.69,0.42-0.98
			c0.27-0.22,0.58-0.33,0.89-0.33c0.36,0,0.69,0.13,0.98,0.42c0.67,0.69,1.78,1.22,3.33,1.56l0.44-1.29l0.62-1.93
			c1.2-3.56,2.16-6.31,2.87-8.23c3.38-8.83,6.76-13.78,10.12-14.9c0.58-0.2,1.16-0.31,1.73-0.31c0.87,0,1.73,0.24,2.58,0.71
			c1.69,0.98,2.53,2.82,2.53,5.51c0,1.82-0.31,3.78-0.91,5.89c-0.6,2.11-1.27,4.14-2,6.03c-1.07,2.71-2.36,4.85-3.87,6.38
			c-1.53,1.56-3.05,2.69-4.6,3.4s-2.89,1.18-4.05,1.36c-1.04,0.18-2.05,0.27-3.05,0.27h-0.6c-1.31,3.89-2.78,7.27-4.42,10.14
			l1.18,0.6c1.82,0.96,3.8,1.96,5.94,3c2.13,1.02,4.22,1.91,6.25,2.67c2.02,0.73,3.76,1.11,5.18,1.11c0.62,0,1.16-0.09,1.6-0.27
			c0.58-0.22,0.98-0.64,1.18-1.27c0.29-0.6,0.71-0.89,1.27-0.89c0.13,0,0.29,0.02,0.42,0.07c0.6,0.29,0.89,0.71,0.89,1.27
			c0,0.13-0.02,0.29-0.07,0.42c-0.49,1.38-1.38,2.33-2.69,2.87c-0.76,0.29-1.6,0.42-2.53,0.42
			C101.51,341.61,99.62,341.26,97.51,340.53z M80.63,332.61c-0.29-0.16-0.56-0.29-0.82-0.4l-0.24-0.11
			c-0.67-0.31-1.33-0.47-1.98-0.47c-0.31,0-0.6,0.04-0.84,0.16c-0.27,0.09-0.49,0.27-0.64,0.51s-0.22,0.49-0.22,0.73
			c0,0.2,0.07,0.42,0.2,0.64c0.11,0.24,0.31,0.42,0.53,0.58c0.24,0.16,0.47,0.22,0.69,0.22C78.5,334.39,79.61,333.77,80.63,332.61z
			 M92.13,318.58c0.98-0.16,2.09-0.53,3.4-1.13c3.16-1.47,5.54-4.25,7.14-8.32c1.82-4.85,2.71-8.52,2.71-10.98
			c0-1.78-0.38-2.85-1.16-3.2c-0.42-0.24-0.84-0.38-1.27-0.38c-0.29,0-0.56,0.04-0.84,0.16c-1.45,0.44-3.11,2.31-5,5.65
			c-1.89,3.31-3.91,8.34-6.07,15.03c-0.38,1.13-0.76,2.27-1.16,3.42C90.61,318.8,91.37,318.74,92.13,318.58z"/>
		<path class="st1" d="M109.69,332.23c-2.58-0.11-4.36-1.27-5.31-3.51c-0.38-0.98-0.56-2.07-0.56-3.22c0-2.07,0.47-4.2,1.4-6.38
			c0.93-2.2,2.11-4,3.49-5.42c1.67-1.62,3.36-2.45,5.07-2.45c0.67,0,1.33,0.13,1.98,0.38c0.76,0.31,1.33,0.8,1.73,1.47
			c0.4,0.64,0.6,1.45,0.6,2.33c0,0.73-0.13,1.51-0.42,2.36c-0.4,1.25-1.07,2.4-1.93,3.47c-0.89,1.04-1.96,1.91-3.22,2.56
			c-1.27,0.67-2.67,0.98-4.2,0.98c-0.58,0-1.18-0.04-1.8-0.16c-0.02,0.29-0.04,0.58-0.04,0.87c0,2.71,1.13,4.07,3.38,4.09
			c1.56,0,3.33-0.64,5.31-1.91c1.98-1.29,3.49-2.98,4.56-5.11c0.31-0.51,0.71-0.78,1.22-0.78c0.2,0,0.38,0.04,0.56,0.13
			c0.51,0.31,0.78,0.69,0.78,1.2c0,0.18-0.04,0.38-0.13,0.56c-1.33,2.69-3.22,4.78-5.65,6.29s-4.62,2.27-6.65,2.27H109.69z
			 M111.56,321.32c0.96-0.58,1.71-1.25,2.33-2.05c1.02-1.36,1.53-2.62,1.53-3.82c0-0.31-0.04-0.6-0.16-0.84
			c-0.2-0.47-0.69-0.71-1.49-0.71c-1.07,0-2.11,0.56-3.2,1.67c-1.67,1.78-2.85,3.94-3.58,6.47c0.47,0.09,0.89,0.11,1.31,0.11
			C109.54,322.14,110.62,321.87,111.56,321.32z"/>
		<path class="st1" d="M143.15,331.08c-2.58-1.27-4.45-3.78-5.62-7.54c-0.44-1.6-0.67-3.25-0.67-4.94c0-2.22,0.38-4.47,1.13-6.74
			s1.87-4.45,3.33-6.56c1.8-2.53,3.69-4.62,5.71-6.23c2-1.62,4.02-2.82,6.05-3.58c2.02-0.78,3.94-1.16,5.71-1.16
			s3.36,0.36,4.76,1.07c1.25,0.64,2.11,1.56,2.62,2.76c0.51,1.18,0.78,2.49,0.78,3.89c0,1.36-0.18,2.71-0.53,4.07
			c-0.36,1.36-0.78,2.58-1.29,3.65c-1.13,2.31-2.69,4.34-4.69,6.05c-2,1.73-4.07,2.87-6.23,3.4c-0.6,0.13-1.2,0.2-1.76,0.2
			c-1.42,0-2.67-0.42-3.71-1.25c-0.51-0.44-0.91-1.04-1.2-1.8s-0.42-1.58-0.42-2.47l0.02-0.73c0.04-0.64,0.24-1.42,0.6-2.36
			c0.36-0.93,0.98-1.91,1.89-2.93c0.91-1.04,2.2-2.02,3.89-2.96c0.22-0.11,0.42-0.18,0.64-0.18c0.47,0,0.87,0.24,1.16,0.71
			c0.11,0.2,0.18,0.4,0.18,0.62c0,0.47-0.24,0.87-0.71,1.18c-1.96,1.13-3.29,2.27-3.98,3.4c-0.67,1.13-1,2.05-1.02,2.78l-0.02,0.51
			c0,1.87,0.89,2.8,2.65,2.8c0.38,0,0.78-0.04,1.2-0.13c1.76-0.44,3.49-1.38,5.16-2.87c1.69-1.47,3-3.18,3.96-5.11
			c1.04-2.22,1.56-4.4,1.56-6.56c0-0.98-0.13-1.85-0.44-2.62c-0.62-1.62-2.27-2.42-4.96-2.42c-1.45,0-3.05,0.31-4.78,0.93
			c-1.76,0.64-3.54,1.69-5.34,3.11c-1.82,1.45-3.58,3.36-5.27,5.74c-2.67,3.94-4,7.87-4,11.76c0,1.45,0.2,2.85,0.58,4.22
			c0.93,2.96,2.31,4.91,4.14,5.83c1.71,0.71,3.47,1.09,5.27,1.09c2.85,0,5.76-0.87,8.76-2.6c2.98-1.71,5.91-4.25,8.78-7.58
			c0.31-0.31,0.64-0.47,1.02-0.47c0.29,0,0.58,0.09,0.84,0.31c0.31,0.29,0.47,0.62,0.47,1c0,0.29-0.11,0.58-0.33,0.87
			c-3.13,3.65-6.36,6.43-9.69,8.32c-3.33,1.89-6.6,2.82-9.83,2.82C147.33,332.39,145.2,331.94,143.15,331.08z"/>
		<path class="st1" d="M166.32,330.39c-0.6-0.98-0.91-2.25-0.91-3.8c0-1.2,0.18-2.49,0.53-3.85c0.36-1.38,0.84-2.71,1.51-4.05
			c0.67-1.31,1.47-2.51,2.4-3.58c0.93-1.09,2-1.96,3.18-2.6c1.18-0.64,2.45-0.98,3.82-0.98c0.96,0,1.69,0.18,2.25,0.56
			c0.53,0.38,0.93,0.78,1.2,1.2c0.24,0.42,0.44,0.89,0.58,1.4c0.64-1.16,1.11-2,1.42-2.49c0.31-0.44,0.69-0.67,1.13-0.67
			c0.24,0,0.47,0.07,0.69,0.2c0.42,0.31,0.64,0.69,0.64,1.13c0,0.24-0.07,0.47-0.2,0.69c-1.65,2.76-3.07,5.54-4.27,8.34
			c-1.22,2.82-1.82,4.94-1.82,6.36c0,0.44,0.07,0.78,0.2,1.02l0.02,0.02c0.09,0.16,0.33,0.24,0.71,0.24c0.76,0,1.53-0.4,2.33-1.18
			c0.78-0.78,1.49-1.71,2.13-2.76c0.67-1.07,1.18-2.07,1.56-3c0.31-0.53,0.71-0.82,1.22-0.82c0.18,0,0.33,0.04,0.51,0.11
			c0.56,0.29,0.82,0.71,0.82,1.22c0,0.18-0.02,0.36-0.09,0.53c-0.09,0.18-0.27,0.58-0.58,1.2c-0.29,0.62-0.69,1.36-1.2,2.18
			c-0.49,0.82-1.09,1.62-1.76,2.4c-0.69,0.8-1.45,1.45-2.27,1.98c-0.82,0.53-1.73,0.8-2.69,0.8c-1.36,0-2.38-0.53-3.05-1.62
			c-0.24-0.49-0.4-1.07-0.47-1.73c-1.93,2.25-4,3.38-6.23,3.38C168.25,332.23,167.14,331.61,166.32,330.39z M173.54,327.5
			c1.33-1.38,2.56-3.33,3.69-5.83c0.82-1.96,1.22-3.65,1.22-5.09c0-0.78-0.13-1.4-0.4-1.85c-0.22-0.38-0.62-0.56-1.2-0.56
			c-1.25,0-2.42,0.4-3.49,1.22c-1.07,0.82-2,1.89-2.8,3.16c-0.78,1.27-1.4,2.62-1.85,4.05c-0.44,1.45-0.67,2.76-0.67,3.98
			c0,1.02,0.18,1.82,0.51,2.4c0.22,0.4,0.6,0.6,1.11,0.6C170.94,329.59,172.23,328.9,173.54,327.5z"/>
		<path class="st1" d="M195.15,331.77c-1.62-0.82-2.45-2.05-2.45-3.69c0-0.8,0.16-1.62,0.42-2.47c0.29-0.87,0.6-1.67,0.93-2.47
			c0.38-0.91,0.73-1.8,1.02-2.69c0.31-0.89,0.47-1.76,0.47-2.58c0-0.47-0.07-0.91-0.2-1.33c-0.16-0.49-0.49-0.91-0.96-1.29
			c-0.47-0.36-1-0.71-1.6-1.04l-0.69-0.4c-0.84,2.4-2.31,5.78-4.4,10.18c-0.29,0.49-0.69,0.76-1.18,0.76c-0.2,0-0.38-0.04-0.58-0.13
			c-0.51-0.29-0.76-0.69-0.76-1.2c0-0.18,0.04-0.38,0.13-0.58c2.02-4.29,3.56-7.94,4.62-10.94c-0.4-0.64-0.58-1.33-0.58-2.07
			c0-1.09,0.42-2.31,1.29-3.67c0.31-0.42,0.67-0.62,1.11-0.62c0.64,0,1.16,0.29,1.53,0.84c0.22,0.29,0.33,0.71,0.33,1.31
			c0,0.71-0.22,1.87-0.67,3.49c0.36,0.24,0.76,0.49,1.18,0.73c0.73,0.4,1.47,0.89,2.18,1.49c0.71,0.6,1.22,1.38,1.56,2.36
			c0.22,0.71,0.31,1.4,0.31,2.11c0,1.09-0.18,2.16-0.51,3.22c-0.36,1.04-0.73,2.07-1.16,3.05c-0.78,1.8-1.18,3.09-1.18,3.85
			c0,0.36,0.09,0.64,0.24,0.84c0.18,0.2,0.42,0.38,0.73,0.53c0.13,0.07,0.27,0.09,0.4,0.09c0.64,0,1.45-0.47,2.42-1.42
			c1.4-1.36,2.62-3.18,3.65-5.42c0.29-0.56,0.71-0.82,1.25-0.82c0.18,0,0.33,0.02,0.49,0.09c0.56,0.31,0.82,0.71,0.82,1.22
			c0,0.24-0.16,0.69-0.49,1.38l-0.09,0.2c-0.67,1.38-1.56,2.73-2.69,4.09c-0.8,0.98-1.67,1.78-2.6,2.42
			c-0.91,0.62-1.85,0.93-2.78,0.93C196.2,332.12,195.69,332.01,195.15,331.77z"/>
		<path class="st1" d="M212.45,331.77c-1.62-0.82-2.45-2.05-2.45-3.69c0-0.8,0.16-1.62,0.42-2.47c0.29-0.87,0.6-1.67,0.93-2.47
			c0.38-0.91,0.73-1.8,1.02-2.69c0.31-0.89,0.47-1.76,0.47-2.58c0-0.47-0.07-0.91-0.2-1.33c-0.16-0.49-0.49-0.91-0.96-1.29
			c-0.47-0.36-1-0.71-1.6-1.04l-0.69-0.4c-0.84,2.4-2.31,5.78-4.4,10.18c-0.29,0.49-0.69,0.76-1.18,0.76c-0.2,0-0.38-0.04-0.58-0.13
			c-0.51-0.29-0.76-0.69-0.76-1.2c0-0.18,0.04-0.38,0.13-0.58c2.02-4.29,3.56-7.94,4.62-10.94c-0.4-0.64-0.58-1.33-0.58-2.07
			c0-1.09,0.42-2.31,1.29-3.67c0.31-0.42,0.67-0.62,1.11-0.62c0.64,0,1.16,0.29,1.53,0.84c0.22,0.29,0.33,0.71,0.33,1.31
			c0,0.71-0.22,1.87-0.67,3.49c0.36,0.24,0.76,0.49,1.18,0.73c0.73,0.4,1.47,0.89,2.18,1.49c0.71,0.6,1.22,1.38,1.56,2.36
			c0.22,0.71,0.31,1.4,0.31,2.11c0,1.09-0.18,2.16-0.51,3.22c-0.36,1.04-0.73,2.07-1.16,3.05c-0.78,1.8-1.18,3.09-1.18,3.85
			c0,0.36,0.09,0.64,0.24,0.84c0.18,0.2,0.42,0.38,0.73,0.53c0.13,0.07,0.27,0.09,0.4,0.09c0.64,0,1.45-0.47,2.42-1.42
			c1.4-1.36,2.62-3.18,3.65-5.42c0.29-0.56,0.71-0.82,1.25-0.82c0.18,0,0.33,0.02,0.49,0.09c0.56,0.31,0.82,0.71,0.82,1.22
			c0,0.24-0.16,0.69-0.49,1.38l-0.09,0.2c-0.67,1.38-1.56,2.73-2.69,4.09c-0.8,0.98-1.67,1.78-2.6,2.42
			c-0.91,0.62-1.85,0.93-2.78,0.93C213.5,332.12,212.99,332.01,212.45,331.77z"/>
		<path class="st1" d="M225.64,332.23c-2.58-0.11-4.36-1.27-5.31-3.51c-0.38-0.98-0.56-2.07-0.56-3.22c0-2.07,0.47-4.2,1.4-6.38
			c0.93-2.2,2.11-4,3.49-5.42c1.67-1.62,3.36-2.45,5.07-2.45c0.67,0,1.33,0.13,1.98,0.38c0.76,0.31,1.33,0.8,1.73,1.47
			c0.4,0.64,0.6,1.45,0.6,2.33c0,0.73-0.13,1.51-0.42,2.36c-0.4,1.25-1.07,2.4-1.93,3.47c-0.89,1.04-1.96,1.91-3.22,2.56
			c-1.27,0.67-2.67,0.98-4.2,0.98c-0.58,0-1.18-0.04-1.8-0.16c-0.02,0.29-0.04,0.58-0.04,0.87c0,2.71,1.13,4.07,3.38,4.09
			c1.56,0,3.33-0.64,5.31-1.91c1.98-1.29,3.49-2.98,4.56-5.11c0.31-0.51,0.71-0.78,1.22-0.78c0.2,0,0.38,0.04,0.56,0.13
			c0.51,0.31,0.78,0.69,0.78,1.2c0,0.18-0.04,0.38-0.13,0.56c-1.33,2.69-3.22,4.78-5.65,6.29s-4.62,2.27-6.65,2.27H225.64z
			 M227.5,321.32c0.96-0.58,1.71-1.25,2.33-2.05c1.02-1.36,1.53-2.62,1.53-3.82c0-0.31-0.04-0.6-0.16-0.84
			c-0.2-0.47-0.69-0.71-1.49-0.71c-1.07,0-2.11,0.56-3.2,1.67c-1.67,1.78-2.85,3.94-3.58,6.47c0.47,0.09,0.89,0.11,1.31,0.11
			C225.48,322.14,226.57,321.87,227.5,321.32z"/>
		<path class="st1" d="M235.49,330.52c-0.53-0.84-0.8-1.91-0.8-3.18c0-1.65,0.36-3.22,1.09-4.76c2.2-4.71,4.14-8.72,5.83-11.98
			c1.69-3.27,3.13-5.94,4.38-8.03c1.25-2.09,2.29-3.71,3.16-4.87c0.87-1.16,1.58-2,2.13-2.51c0.58-0.49,1.02-0.8,1.36-0.89
			c0.36-0.11,0.62-0.16,0.82-0.16c0.36,0,0.69,0.13,0.93,0.4c0.27,0.24,0.4,0.56,0.4,0.93c0,0.36-0.11,0.67-0.36,0.91
			c-0.24,0.24-0.53,0.4-0.89,0.42c-0.42,0.11-1.22,1-2.45,2.67c-1.2,1.69-2.87,4.45-5,8.34c-2.11,3.87-4.76,9.16-7.89,15.87
			c-0.58,1.31-0.87,2.53-0.87,3.65c0,0.71,0.13,1.31,0.4,1.76c0.18,0.33,0.49,0.49,0.93,0.49c1.45,0,3.05-0.93,4.82-2.82
			c1.36-1.42,2.45-2.85,3.27-4.29c0.31-0.44,0.71-0.67,1.16-0.67c0.22,0,0.44,0.07,0.67,0.18c0.44,0.31,0.67,0.69,0.67,1.16
			c0,0.22-0.07,0.44-0.18,0.64s-0.36,0.62-0.78,1.22c-0.4,0.62-0.93,1.33-1.58,2.13c-0.64,0.82-1.4,1.6-2.25,2.38
			c-0.84,0.78-1.76,1.42-2.73,1.93c-0.98,0.51-2,0.78-3.07,0.78C237.31,332.23,236.24,331.65,235.49,330.52z"/>
		<path class="st1" d="M252.32,332.23c-2.58-0.11-4.36-1.27-5.31-3.51c-0.38-0.98-0.56-2.07-0.56-3.22c0-2.07,0.47-4.2,1.4-6.38
			c0.93-2.2,2.11-4,3.49-5.42c1.67-1.62,3.36-2.45,5.07-2.45c0.67,0,1.33,0.13,1.98,0.38c0.76,0.31,1.33,0.8,1.73,1.47
			c0.4,0.64,0.6,1.45,0.6,2.33c0,0.73-0.13,1.51-0.42,2.36c-0.4,1.25-1.07,2.4-1.93,3.47c-0.89,1.04-1.96,1.91-3.22,2.56
			c-1.27,0.67-2.67,0.98-4.2,0.98c-0.58,0-1.18-0.04-1.8-0.16c-0.02,0.29-0.04,0.58-0.04,0.87c0,2.71,1.13,4.07,3.38,4.09
			c1.56,0,3.33-0.64,5.31-1.91c1.98-1.29,3.49-2.98,4.56-5.11c0.31-0.51,0.71-0.78,1.22-0.78c0.2,0,0.38,0.04,0.56,0.13
			c0.51,0.31,0.78,0.69,0.78,1.2c0,0.18-0.04,0.38-0.13,0.56c-1.33,2.69-3.22,4.78-5.65,6.29s-4.62,2.27-6.65,2.27H252.32z
			 M254.18,321.32c0.96-0.58,1.71-1.25,2.33-2.05c1.02-1.36,1.53-2.62,1.53-3.82c0-0.31-0.04-0.6-0.16-0.84
			c-0.2-0.47-0.69-0.71-1.49-0.71c-1.07,0-2.11,0.56-3.2,1.67c-1.67,1.78-2.85,3.94-3.58,6.47c0.47,0.09,0.89,0.11,1.31,0.11
			C252.16,322.14,253.25,321.87,254.18,321.32z"/>
		<path class="st1" d="M262.05,330.61c-0.53-0.84-0.8-1.91-0.8-3.2c0-1.65,0.36-3.22,1.09-4.76c2.85-6.11,5.27-11.03,7.27-14.76
			l-0.82-0.04c-0.53,0-1.04,0.07-1.53,0.18c-0.11,0.02-0.24,0.04-0.36,0.04c-0.58,0-1-0.33-1.27-0.98
			c-0.02-0.11-0.04-0.22-0.04-0.33c0-0.29,0.09-0.56,0.27-0.8s0.42-0.4,0.71-0.49c0.73-0.18,1.47-0.27,2.2-0.27
			c0.76,0,1.49,0.04,2.22,0.16c3.87-6.96,6.65-10.65,8.34-11.05c0.29-0.07,0.51-0.11,0.69-0.11c0.36,0,0.69,0.13,0.93,0.4
			c0.27,0.24,0.4,0.56,0.4,0.93c0,0.36-0.11,0.67-0.36,0.91c-0.24,0.24-0.56,0.4-0.91,0.42c-0.38,0.09-1.07,0.82-2.09,2.18
			c-1.02,1.36-2.38,3.56-4.11,6.6l0.53,0.02c0.56,0,1.11-0.07,1.67-0.2c0.11-0.02,0.22-0.04,0.36-0.04c0.29,0,0.53,0.09,0.78,0.27
			c0.36,0.27,0.53,0.6,0.53,1.04c0,0.29-0.09,0.56-0.27,0.8s-0.42,0.4-0.73,0.49c-0.78,0.2-1.58,0.29-2.38,0.29
			c-0.64,0-1.27-0.04-1.89-0.11c-2.11,3.85-4.69,9.03-7.74,15.56c-0.58,1.33-0.84,2.56-0.84,3.67c0,1.49,0.44,2.22,1.33,2.22
			c1.42,0,3.05-0.96,4.85-2.87c1.36-1.45,2.45-2.85,3.25-4.25c0.31-0.44,0.69-0.67,1.16-0.67c0.22,0,0.44,0.07,0.67,0.18
			c0.42,0.31,0.64,0.69,0.64,1.16c0,0.22-0.04,0.44-0.16,0.64c-0.13,0.2-0.38,0.62-0.8,1.22c-0.4,0.62-0.91,1.33-1.58,2.13
			c-0.64,0.82-1.38,1.6-2.22,2.38c-0.84,0.78-1.76,1.42-2.73,1.93c-0.98,0.51-2,0.78-3.07,0.78
			C263.88,332.3,262.81,331.74,262.05,330.61z"/>
	</g>
	<g>
		<g>
			<g>
				<path d="M189.96,338.49h3.46c1.9,0,2.92,1.01,2.92,2.44c0,1.18-0.71,1.94-1.53,2.17c0.71,0.2,1.88,0.89,1.88,2.45
					c0,1.98-1.49,2.86-3.22,2.86h-3.52V338.49z M193.17,342.76c1.71,0,2.37-0.64,2.37-1.79c0-0.98-0.68-1.77-2.07-1.77h-2.75v3.56
					H193.17z M190.71,347.7h2.79c1.3,0,2.4-0.65,2.4-2.11c0-1.26-0.81-2.13-2.81-2.13h-2.38V347.7z"/>
				<path d="M203.48,347.06c0,0.62,0.06,1.12,0.1,1.35h-0.68c-0.06-0.17-0.1-0.48-0.13-1.09c-0.24,0.52-0.87,1.26-2.33,1.26
					c-1.64,0-2.35-1.06-2.35-2.13c0-1.56,1.21-2.27,3.33-2.27c0.59,0,1.06,0,1.35,0v-0.72c0-0.71-0.21-1.66-1.83-1.66
					c-1.43,0-1.64,0.75-1.8,1.33h-0.71c0.08-0.78,0.57-1.98,2.52-1.98c1.62,0,2.52,0.68,2.52,2.24V347.06z M202.79,344.8
					c-0.27,0-0.92,0-1.39,0c-1.57,0-2.55,0.41-2.55,1.63c0,0.89,0.64,1.5,1.63,1.5c2.03,0,2.31-1.35,2.31-2.88V344.8z"/>
				<path d="M205.82,343.25c0-1.19-0.01-1.7-0.01-1.93h0.69c0.01,0.23,0.03,0.68,0.03,1.59c0.41-1.06,1.32-1.7,2.47-1.76v0.77
					c-1.47,0.1-2.47,1.12-2.47,2.81v3.69h-0.71V343.25z"/>
				<path d="M218.95,347.06c0,0.62,0.06,1.12,0.1,1.35h-0.68c-0.06-0.17-0.1-0.48-0.13-1.09c-0.24,0.52-0.86,1.26-2.32,1.26
					c-1.64,0-2.35-1.06-2.35-2.13c0-1.56,1.21-2.27,3.33-2.27c0.6,0,1.06,0,1.35,0v-0.72c0-0.71-0.21-1.66-1.83-1.66
					c-1.43,0-1.64,0.75-1.8,1.33h-0.71c0.08-0.78,0.57-1.98,2.52-1.98c1.62,0,2.52,0.68,2.52,2.24V347.06z M218.26,344.8
					c-0.27,0-0.92,0-1.39,0c-1.57,0-2.55,0.41-2.55,1.63c0,0.89,0.64,1.5,1.63,1.5c2.03,0,2.31-1.35,2.31-2.88V344.8z"/>
				<path d="M230.19,346.33c-0.34,1.25-1.16,2.25-2.75,2.25c-1.77,0-3.03-1.32-3.03-3.69c0-1.94,1.04-3.74,3.12-3.74
					c1.8,0,2.54,1.28,2.67,2.27h-0.72c-0.21-0.82-0.75-1.6-1.96-1.6c-1.5,0-2.35,1.28-2.35,3.05c0,1.69,0.79,3.05,2.28,3.05
					c1.03,0,1.66-0.52,2.03-1.59H230.19z"/>
				<path d="M237.57,344.85c0,1.97-1.09,3.73-3.2,3.73c-1.91,0-3.1-1.57-3.1-3.71c0-2.03,1.12-3.71,3.17-3.71
					C236.32,341.15,237.57,342.63,237.57,344.85z M232.01,344.87c0,1.69,0.91,3.05,2.41,3.05c1.53,0,2.4-1.26,2.4-3.05
					c0-1.67-0.85-3.05-2.42-3.05C232.78,341.82,232.01,343.17,232.01,344.87z"/>
				<path d="M244.54,346.33c-0.34,1.25-1.16,2.25-2.75,2.25c-1.77,0-3.03-1.32-3.03-3.69c0-1.94,1.04-3.74,3.12-3.74
					c1.8,0,2.54,1.28,2.67,2.27h-0.72c-0.21-0.82-0.75-1.6-1.96-1.6c-1.5,0-2.35,1.28-2.35,3.05c0,1.69,0.79,3.05,2.28,3.05
					c1.03,0,1.66-0.52,2.03-1.59H244.54z"/>
				<path d="M246.89,344.98c0.65-0.69,2.64-2.71,3.59-3.66h0.91l-2.81,2.82l3.16,4.27h-0.88l-2.79-3.81l-1.18,1.13v2.68h-0.71
					v-10.45h0.71V344.98z"/>
				<path d="M251.76,341.32h1.32v-2.21h0.71v2.21h1.69v0.67h-1.69v4.61c0,0.79,0.17,1.25,0.85,1.25c0.21,0,0.51-0.01,0.74-0.08v0.62
					c-0.24,0.1-0.58,0.13-0.88,0.13c-0.91,0-1.42-0.45-1.42-1.59v-4.93h-1.32V341.32z"/>
				<path d="M261.78,347.06c0,0.62,0.06,1.12,0.1,1.35h-0.68c-0.06-0.17-0.1-0.48-0.13-1.09c-0.24,0.52-0.86,1.26-2.32,1.26
					c-1.64,0-2.35-1.06-2.35-2.13c0-1.56,1.21-2.27,3.33-2.27c0.6,0,1.06,0,1.35,0v-0.72c0-0.71-0.21-1.66-1.83-1.66
					c-1.43,0-1.64,0.75-1.8,1.33h-0.71c0.08-0.78,0.57-1.98,2.52-1.98c1.62,0,2.52,0.68,2.52,2.24V347.06z M261.08,344.8
					c-0.27,0-0.92,0-1.39,0c-1.57,0-2.55,0.41-2.55,1.63c0,0.89,0.64,1.5,1.63,1.5c2.03,0,2.31-1.35,2.31-2.88V344.8z"/>
				<path d="M264.11,337.96h0.71v1.38h-0.71V337.96z M264.11,341.32h0.71v7.09h-0.71V341.32z"/>
				<path d="M267.15,348.41v-10.45h0.71v10.45H267.15z"/>
				<path d="M270.18,346.46c0.24,0.92,0.89,1.47,2.01,1.47c1.26,0,1.77-0.58,1.77-1.38c0-0.81-0.34-1.21-1.93-1.59
					c-1.83-0.44-2.28-0.99-2.28-1.93c0-0.98,0.74-1.89,2.34-1.89c1.6,0,2.37,0.98,2.48,1.98h-0.71c-0.13-0.59-0.6-1.33-1.8-1.33
					c-1.23,0-1.59,0.61-1.59,1.18c0,0.65,0.34,0.98,1.74,1.32c2,0.48,2.5,1.13,2.5,2.2c0,1.29-1.05,2.08-2.54,2.08
					c-1.62,0-2.52-0.85-2.72-2.13H270.18z"/>
			</g>
		</g>
	</g>
	<g>
		<g>
			<path d="M216.17,339.9c-0.42-0.7-0.79-1.84-0.87-2.81h0.58c0.04,0.65,0.24,1.68,0.81,2.81H216.17z"/>
		</g>
	</g>
</g>
</svg>
