<?xml version="1.0" encoding="utf-8"?>
<!-- Generator: Adobe Illustrator 24.0.2, SVG Export Plug-In . SVG Version: 6.00 Build 0)  -->
<svg version="1.1" id="Layer_1" xmlns="http://www.w3.org/2000/svg" xmlns:xlink="http://www.w3.org/1999/xlink" x="0px" y="0px"
	 viewBox="0 0 360 960" style="enable-background:new 0 0 360 960;" xml:space="preserve">
<style type="text/css">
	.st0{fill:#808080;stroke:#000000;stroke-miterlimit:10;}
	.st1{fill:#333333;}
	.st2{fill:#B3B3B3;stroke:#000000;stroke-miterlimit:10;}
	.st3{font-family:'MyriadPro-Regular';}
	.st4{font-size:40.02px;}
	.st5{fill:#FFFFFF;}
	.st6{font-size:30px;}
	.st7{font-size:26.6667px;}
	.st8{font-size:20px;}
	.st9{font-size:40px;}
	.st10{fill:#CCCCCC;}
</style>
<rect x="-0.5" y="639.5" class="st0" width="360" height="321"/>
<rect class="st1" width="360" height="640"/>
<line x1="0" y1="0" x2="360" y2="640"/>
<line x1="0" y1="640" x2="360" y2="0"/>
<circle class="st2" cx="180.2" cy="100.08" r="98.8"/>
<text transform="matrix(1 0 0 1 135.1084 113.1206)" class="st3 st4">LOGO</text>
<text transform="matrix(1 0 0 1 95.7716 241.4117)" class="st5 st3 st6">01 23 45 67 89</text>
<text transform="matrix(1 0 0 1 40.0313 290.2386)" class="st5 st3 st6">2 Adresse du bar 33000</text>
<text transform="matrix(1 0 0 1 96.2663 340.2384)" class="st5 st3 st6">12h00 - 23h00</text>
<text transform="matrix(1 0 0 1 111.4901 390.2382)" class="st5 st3 st6">Happy hour</text>
<rect x="32.25" y="420.08" class="st2" width="296.05" height="100"/>
<text transform="matrix(1 0 0 1 70.4356 481.9551)" class="st3 st7">Je découvre la carte</text>
<rect x="32.51" y="530.5" class="st2" width="296.05" height="100"/>
<text transform="matrix(1 0 0 1 119.8471 592.3706)" class="st3 st7">Je réserve</text>
<text transform="matrix(1 0 0 1 119.8471 741.3706)" class="st3 st7">horaires :</text>
<text transform="matrix(1 0 0 1 70.8471 781.3706)" class="st3 st7">lundi : 12h00 - 02h00</text>
<text transform="matrix(1 0 0 1 23.8471 826.3706)" class="st3 st7">mar - ven : 12h00 - 02h00</text>
<text transform="matrix(1 0 0 1 47.8471 871.3706)" class="st3 st7">samedi : 12h00 - 02h00</text>
<text transform="matrix(1 0 0 1 60.8471 917.3706)" class="st3 st8">Mentions légales</text>
<text transform="matrix(1 0 0 1 60.8471 949.3706)" class="st3 st8">Plan du site</text>
<text transform="matrix(1 0 0 1 199.8471 949.3706)" class="st3 st8">copyright</text>
<text transform="matrix(1 0 0 1 229.8471 917.3706)" class="st3 st8">CGU</text>
<circle cx="134.18" cy="674.28" r="28"/>
<circle cx="214.15" cy="674.28" r="28"/>
<text transform="matrix(1 0 0 1 124.4368 689.0218)" class="st5 st3 st9">F</text>
<text transform="matrix(1 0 0 1 209.4667 689.0218)" class="st5 st3 st9">i</text>
<rect x="272" class="st10" width="88" height="88"/>
<line x1="347.43" y1="70.71" x2="285.36" y2="70.71"/>
<line x1="347.43" y1="43.71" x2="285.36" y2="43.71"/>
<line x1="347.43" y1="16.71" x2="285.36" y2="16.71"/>
</svg>
